<svg width="48" height="48" viewBox="0 0 48 48" fill="none" xmlns="http://www.w3.org/2000/svg">
<rect width="48" height="48" fill="#1E1E1E"/>
<path d="M23.1112 26.839C23.4683 26.8376 23.8252 26.8431 24.182 26.8554C24.371 27.9345 24.5049 29.0253 24.7153 30.1C24.8963 31.0239 25.165 31.9309 25.2839 32.8663C25.4508 34.1783 25.3539 35.5076 25.3833 36.826C25.4118 38.1072 25.6202 39.4082 25.897 40.6572C25.9738 41.0039 26.11 41.6885 26.3471 41.9373C26.3856 41.6443 26.2149 41.0359 26.1594 40.7068C26.0122 39.8338 25.8492 38.9487 25.7422 38.0702C25.5316 36.3425 25.7502 34.5507 25.5646 32.802C25.4816 32.0204 25.2672 31.2676 25.1096 30.5001C24.9741 29.8408 24.8682 29.174 24.7549 28.5106C24.6604 27.9573 24.5547 27.4022 24.4825 26.8456L24.7846 26.8444C24.9619 28.0698 25.1687 29.2902 25.4051 30.5055C25.5428 31.1987 25.7423 31.8838 25.8345 32.5852C25.9174 33.2153 25.9198 33.858 25.9224 34.4926C25.9266 35.5245 25.8991 36.5664 25.9782 37.5956C26.0522 38.5578 26.235 39.6008 26.4098 40.5522C26.4925 41.0018 26.613 41.4543 26.658 41.909C26.8012 41.9073 26.9456 41.8983 27.0822 41.9483C27.3129 42.0327 27.4963 42.2164 27.7165 42.323C28.2408 42.5766 28.8289 42.7352 29.3956 42.8645C30.1074 43.0268 30.8759 42.5127 31.4655 43.0775C31.5901 43.1968 31.7218 43.3692 31.7164 43.5512C31.7099 43.7715 31.5105 43.9543 31.3559 44.09C31.2556 44.1765 31.1517 44.2583 31.0443 44.3357C30.9369 44.413 30.8263 44.4855 30.7125 44.5531C30.5987 44.6208 30.4822 44.6833 30.363 44.7408C30.2437 44.7982 30.1222 44.8504 29.9984 44.8972C29.1825 45.2121 28.2911 45.3019 27.4464 45.5167C26.8523 45.6677 26.2639 45.9175 25.6629 46.0253C25.4103 46.0706 25.163 46.0617 24.9082 46.0504C24.419 45.4652 24.5577 45.4876 24.4128 44.8201L24.4065 44.7925C24.3129 44.4315 24.0956 43.3804 24.2622 43.0733C24.32 42.9668 24.4535 42.882 24.5497 42.8103C24.4037 42.8013 24.2575 42.7892 24.1112 42.7923C23.8129 41.6448 23.4983 40.5018 23.1672 39.3633C22.9108 38.4671 22.6405 37.5686 22.4656 36.6522C22.3095 35.8348 22.3869 35.0453 22.3885 34.2221C22.3905 33.2278 22.1534 32.1366 21.7558 31.223C21.5085 31.9981 21.2464 32.7722 21.0577 33.5644C20.9797 33.892 20.9019 34.2218 20.8391 34.5528C20.8019 34.7491 20.7848 34.9563 20.7337 35.1491C20.7084 35.2449 20.6799 35.3454 20.5904 35.3989C20.227 35.4612 18.8513 34.9319 18.4519 34.7621C18.1972 34.6538 17.9507 34.5259 17.7046 34.3997C17.4471 34.7686 17.1379 35.1099 16.8533 35.4586C16.3787 36.0402 15.9123 36.6427 15.5077 37.2756C15.0858 37.9367 14.6917 38.614 14.3254 39.3075C14.0842 39.7561 13.8687 40.262 13.5646 40.6688C13.6507 40.7734 13.6978 40.8421 13.7232 40.9768C13.8511 41.6563 13.8456 42.358 14.193 42.9825C14.2314 43.0504 14.2728 43.1164 14.317 43.1806C14.3613 43.2448 14.4083 43.307 14.4579 43.3671C14.5076 43.4272 14.5598 43.4851 14.6146 43.5406C14.6693 43.5962 14.7264 43.6492 14.7858 43.6998C15.244 44.0904 16.0287 44.4463 15.9634 45.1676C15.9505 45.3105 15.9048 45.4636 15.7888 45.5568C15.6295 45.6848 15.3826 45.6827 15.1879 45.6716C14.3775 45.485 13.4847 45.1905 12.8201 44.6824C12.6128 44.524 12.4573 44.3022 12.2462 44.15C12.2405 44.1459 12.2347 44.142 12.2289 44.1379C11.932 43.8898 11.6229 43.6577 11.3017 43.4417C10.8034 43.1137 10.2799 42.8195 9.82994 42.4242C9.64835 42.2647 9.24836 41.9056 9.26219 41.6413C9.26697 41.5498 9.3258 41.4559 9.37821 41.3845C9.52155 41.189 9.70905 41.0166 9.86477 40.8286C10.1026 40.5417 10.6038 39.8243 10.8545 39.6257C10.9231 39.5713 10.9746 39.5661 11.0581 39.5701C11.1572 39.5748 11.21 39.5823 11.2963 39.5269C11.3155 39.4971 11.3279 39.4726 11.3302 39.4365C11.3357 39.3474 11.3291 39.2523 11.3522 39.1655C11.3952 39.0038 11.494 38.8319 11.5627 38.6781C11.6637 38.4475 11.7622 38.2159 11.8583 37.9832C12.6458 36.1119 13.4198 34.2349 14.7317 32.6589C13.7666 31.945 12.8328 31.2146 12.1486 30.2136C12.2016 29.9542 12.2885 29.6953 12.3535 29.4377L13.0308 26.8454L13.3575 26.845C13.0901 27.8783 12.7637 28.902 12.5412 29.9467L12.6912 30.0994C12.8586 29.8027 12.9584 29.4417 13.0607 29.1174C13.2977 28.3661 13.4859 27.6026 13.7043 26.846C14.2431 26.8525 14.7818 26.854 15.3205 26.8506C15.3916 26.8549 15.4599 26.8531 15.5272 26.8777C15.5207 27.102 15.4244 27.3453 15.361 27.5599C15.2596 27.9038 14.7667 29.3767 14.819 29.6483C15.2887 28.8028 15.5302 27.7792 15.7707 26.8497L22.2543 26.8477C22.3276 26.8465 22.3949 26.8354 22.4563 26.8825C22.4912 26.9575 22.4826 27.0078 22.4553 27.0825C21.8281 28.7997 21.226 30.5169 20.7291 32.2779C20.5873 32.7847 20.4539 33.2938 20.329 33.805C20.2819 33.9996 20.2586 34.2125 20.2007 34.4018C20.1786 34.4741 20.1536 34.5285 20.108 34.5886C20.0446 34.611 20.0322 34.6016 19.9662 34.5835C19.3955 34.3976 18.8332 34.2045 18.2776 33.9769C16.04 32.9499 14.2666 31.7257 12.4255 30.0958C12.4634 30.1658 12.504 30.2344 12.5471 30.3014C12.8479 30.7625 13.3032 31.1509 13.7199 31.5065C15.4839 33.0117 18.1367 34.6175 20.4273 35.1074C20.501 34.8414 20.5411 34.558 20.5974 34.2874C20.6868 33.8613 20.7881 33.438 20.9016 33.0176C21.2583 31.6986 21.7026 30.406 22.1341 29.1102C22.385 28.3569 22.6063 27.5915 22.8835 26.8475L23.1112 26.839ZM12.9407 41.3883C13.2127 41.8292 13.381 42.3813 13.5897 42.857C13.6965 43.1002 13.8424 43.3211 13.9441 43.5672C13.9786 43.6506 14.0005 43.7284 14.0007 43.8189L13.9805 43.8493C13.8866 43.8347 13.7911 43.715 13.7377 43.6419C13.3826 43.1555 13.1012 42.1255 12.8495 41.5413C12.104 41.408 11.3409 41.3763 10.861 40.694C10.7711 40.5662 10.7082 40.4278 10.6478 40.2843C10.4312 40.5641 10.222 40.8586 9.98894 41.1245L9.94694 41.1938C10.1434 41.609 10.8527 41.9485 11.2132 42.2141C11.6723 42.5523 12.0864 42.9482 12.4921 43.3478C12.8032 43.6542 13.1043 43.9693 13.4541 44.2329C13.7501 44.0344 14.044 43.8268 14.3565 43.6549C13.725 42.7731 13.6422 42.1909 13.4951 41.1415C13.4793 41.0291 13.4638 40.8768 13.3269 40.8599C12.8723 40.8038 12.515 41.245 11.8853 41.0237C11.7658 40.9817 11.6526 40.9225 11.5697 40.8246C11.3259 40.5362 11.3672 40.0221 11.035 39.8177C10.9611 39.8685 10.8876 39.9256 10.8671 40.0186C10.8269 40.2006 11.012 40.4901 11.122 40.6211C11.6387 41.2371 12.2942 41.1093 12.9054 41.3733L12.9407 41.3883ZM24.738 45.1639C25.2876 45.167 25.7616 45.0602 26.2857 44.9108C27.2218 44.6666 28.1657 44.4575 29.1174 44.2834C29.147 44.0207 29.1873 43.7636 29.2609 43.5092C28.8716 43.4609 28.4793 43.3536 28.0958 43.271C27.7391 43.1941 27.3753 43.1352 27.0212 43.0489C26.5271 43.4916 25.9138 44.1262 25.1957 44.0879C24.9471 44.0747 24.7173 43.98 24.5103 43.8465C24.5716 44.2886 24.627 44.7308 24.738 45.1639ZM29.7571 43.1979C29.5299 43.4984 29.4218 43.8576 29.3314 44.2192L29.6309 44.1177C30.0151 43.9651 30.8808 43.6198 31.0604 43.2276C31.0802 43.1846 31.0831 43.1618 31.0795 43.1159C31.039 43.0661 31.0145 43.0459 30.9487 43.0367C30.8735 43.0262 30.7867 43.0288 30.712 43.0406C30.3905 43.0713 30.0699 43.1161 29.7571 43.1979ZM12.9526 40.6766L13.1847 40.6048C12.8026 40.4528 12.4134 40.3029 12.0667 40.0779C11.8736 39.9526 11.6907 39.7628 11.4879 39.6619C11.4084 39.8241 11.4491 39.9761 11.504 40.1411C11.5902 40.4004 11.7473 40.6764 11.9999 40.8015C12.2715 40.9361 12.6374 40.7946 12.9009 40.6976C12.9183 40.6911 12.9355 40.684 12.9526 40.6766ZM26.4943 42.7788C26.411 42.6576 26.3386 42.511 26.2439 42.4011C25.7864 42.5948 25.3122 42.7407 24.8155 42.7861C24.8565 42.9317 24.8813 43.0979 25.0235 43.1801C25.0572 43.1996 25.0932 43.2153 25.1288 43.2308C25.6582 43.3047 26.0772 43.0792 26.4943 42.7788ZM17.2506 34.1734C16.6749 34.9473 16.0942 35.7146 15.5287 36.4967C15.1784 36.9812 14.8192 37.4692 14.5131 37.9831C14.2157 38.4825 13.9704 39.0115 13.7194 39.5351C13.6092 39.7651 13.3724 40.1603 13.3181 40.3824C13.3479 40.4155 13.3327 40.4059 13.3581 40.4185C13.4169 40.3696 13.4679 40.3184 13.5116 40.2553C13.6711 40.0247 13.7901 39.7488 13.9239 39.5017C14.201 38.9841 14.487 38.4714 14.7818 37.9635C15.5612 36.6419 16.528 35.4713 17.4911 34.2828C17.414 34.2414 17.3364 34.1927 17.2506 34.1734ZM24.5366 43.5697C24.7524 43.7181 25.0732 43.899 25.3436 43.8477C25.4837 43.8212 25.6244 43.7816 25.7548 43.7235C25.9509 43.6363 26.7041 43.184 26.8086 43.0144C26.8125 43.0082 26.8151 43.0014 26.8182 42.9948C26.7903 42.9731 26.7629 42.9504 26.7333 42.9309C26.3068 43.224 25.7873 43.588 25.2399 43.4983C25.0288 43.4637 24.6095 43.1889 24.4504 43.2357C24.418 43.3107 24.4407 43.3866 24.4707 43.4616C24.4873 43.5033 24.5077 43.5351 24.5366 43.5697ZM15.6773 44.9456C15.6346 44.8446 15.5919 44.7478 15.525 44.6598C15.3374 44.4129 14.7616 43.9415 14.4695 43.8229C14.2016 44.0252 13.9139 44.1988 13.6257 44.3704C14.023 44.5823 14.4993 44.7585 14.941 44.8558C15.186 44.9029 15.4274 44.9411 15.6773 44.9456ZM31.4768 43.581C31.4389 43.4916 31.4063 43.407 31.3454 43.3302C30.9948 43.7063 30.6257 43.9902 30.1518 44.1971C29.231 44.5988 28.2114 44.6634 27.244 44.8962C26.5643 45.0599 25.9006 45.3833 25.1951 45.4071C25.0287 45.4116 24.8624 45.4089 24.6963 45.3989C24.764 45.5203 24.8278 45.6248 24.938 45.714C25.0934 45.783 25.2204 45.8325 25.3947 45.813C26.0219 45.7429 26.6169 45.4706 27.2251 45.3143C28.1256 45.0829 29.0571 44.9875 29.9295 44.6511C30.4956 44.4327 31.1325 44.1008 31.4768 43.581ZM26.7799 42.1604C26.7019 42.2336 26.6364 42.2958 26.6291 42.4079C26.623 42.5013 26.6684 42.5814 26.731 42.6467C27.0538 42.9836 27.65 42.99 28.0797 43.0762C28.4806 43.1566 28.933 43.2568 29.2896 43.4631C29.3377 43.3458 29.3856 43.2329 29.4481 43.1222C28.8179 42.9955 28.2109 42.8183 27.6221 42.5579C27.3365 42.4316 27.0835 42.2428 26.7799 42.1604ZM9.73455 41.3927C9.65641 41.4709 9.57349 41.5473 9.50252 41.6319C9.62983 41.87 9.78986 42.0736 9.99485 42.2502C10.5657 42.7419 11.2605 43.0724 11.8639 43.5218C12.3908 43.9141 12.8274 44.4141 13.389 44.7621C13.7404 44.9799 14.1492 45.1342 14.5441 45.2524C14.8535 45.345 15.1616 45.4068 15.485 45.4129C15.5365 45.3704 15.6226 45.3119 15.6312 45.2426L15.6361 45.2586L15.6382 45.2199C15.4321 45.1263 15.1883 45.15 14.9688 45.1093C14.5628 45.0341 14.1628 44.8925 13.7901 44.717C12.8678 44.2827 12.2403 43.3563 11.4643 42.7203C10.8827 42.2436 10.2796 41.9358 9.73455 41.3927Z" fill="#F9F9FB"/>
<path d="M22.2543 26.8477C22.3276 26.8465 22.395 26.8354 22.4564 26.8825C22.4912 26.9575 22.4826 27.0078 22.4553 27.0825C21.8281 28.7997 21.226 30.5169 20.7292 32.2779C20.5873 32.7847 20.4539 33.2938 20.329 33.805C20.2819 33.9996 20.2586 34.2125 20.2007 34.4018C20.1787 34.4741 20.1536 34.5285 20.108 34.5887C20.0447 34.611 20.0322 34.6016 19.9662 34.5835C19.3955 34.3976 18.8333 34.2045 18.2776 33.9769C18.2772 33.9427 18.2716 33.9094 18.2671 33.8755C18.0656 33.5672 16.3515 32.7618 15.9156 32.4998C15.3784 32.1769 14.8569 31.8222 14.3322 31.4792C14.4346 31.1342 14.7012 29.8476 14.819 29.6483C15.2887 28.8028 15.5302 27.7792 15.7707 26.8497L22.2543 26.8477Z" fill="white"/>
<path d="M22.2543 26.8477C22.3276 26.8465 22.3949 26.8354 22.4564 26.8825C22.4912 26.9575 22.4826 27.0078 22.4553 27.0825C21.8281 28.7997 21.226 30.5169 20.7292 32.2779C20.5873 32.7847 20.4539 33.2938 20.329 33.805C20.2819 33.9996 20.2586 34.2125 20.2007 34.4018C20.1787 34.4741 20.1536 34.5285 20.108 34.5887C20.0446 34.611 20.0322 34.6016 19.9662 34.5835C19.9885 33.6619 20.294 32.7638 20.5503 31.8848C21.0482 30.1769 21.6261 28.5117 22.2543 26.8477Z" fill="#F9F9FB"/>
<path d="M23.1112 26.839C23.4683 26.8376 23.8252 26.8431 24.182 26.8554C24.371 27.9345 24.5049 29.0253 24.7153 30.1C24.8963 31.0239 25.165 31.9309 25.2839 32.8663C25.4508 34.1783 25.3539 35.5076 25.3833 36.826C25.4118 38.1072 25.6202 39.4082 25.897 40.6572C25.9738 41.0039 26.11 41.6885 26.3472 41.9373L26.357 41.9531C26.3528 41.9838 26.356 41.9965 26.3357 42.0211C26.0439 42.3738 24.7933 42.5097 24.3192 42.5554C24.1259 41.9639 24.0064 41.3387 23.8351 40.7389C23.3988 39.2109 22.9023 37.6787 22.6729 36.1024C22.5836 35.4886 22.6597 34.8638 22.6643 34.2473C22.6733 33.0386 22.349 31.9355 21.894 30.8293C21.973 30.4834 22.0995 30.1383 22.2063 29.7995L22.791 27.9639C22.9016 27.6212 23.0898 27.1976 23.1112 26.839Z" fill="white"/>
<path d="M13.7043 26.846C14.2431 26.8525 14.7818 26.854 15.3205 26.8506C15.0375 27.8326 14.734 28.8109 14.4795 29.8007C14.3458 30.3207 14.2078 30.8475 14.1466 31.3818C13.6925 30.9736 13.0303 30.6025 12.6912 30.0994C12.8586 29.8027 12.9584 29.4417 13.0608 29.1174C13.2978 28.3661 13.4859 27.6026 13.7043 26.846Z" fill="white"/>
<path d="M14.97 32.806C15.7141 33.2886 16.4743 33.7444 17.2506 34.1734C16.6749 34.9473 16.0942 35.7146 15.5287 36.4967C15.1784 36.9812 14.8192 37.4693 14.5131 37.9831C14.2157 38.4825 13.9704 39.0115 13.7194 39.5351C13.6092 39.7651 13.3724 40.1603 13.3181 40.3824C13.3478 40.4155 13.3327 40.4059 13.3581 40.4185C13.344 40.4267 13.3185 40.4298 13.3024 40.4336C12.6635 40.1775 12.0957 39.8265 11.6405 39.3048C11.8561 38.6901 12.1278 38.0928 12.3804 37.4924C13.1109 35.7564 13.7721 34.2791 14.97 32.806Z" fill="white"/>
<path d="M25.7713 6.06856C25.9023 5.8273 26.0293 5.58617 26.1362 5.33305C26.364 4.79384 26.5425 4.20606 26.8859 3.7262C27.3095 3.13449 27.9873 2.76396 28.6994 2.64963C29.4846 2.52356 30.2203 2.7053 30.8606 3.17366C31.0129 3.28733 31.1587 3.40872 31.298 3.53784C31.4374 3.66696 31.5696 3.80308 31.6946 3.94621C32.0519 4.35161 32.33 4.80678 32.6463 5.2422C32.8527 5.5265 33.0965 5.79017 33.2867 6.08506C33.3306 6.15308 33.3875 6.24833 33.3918 6.33176C33.3959 6.40892 33.3625 6.47276 33.3125 6.52906C33.0301 6.84757 32.3274 6.99415 31.92 7.00831C31.6479 7.52796 31.3634 7.84048 30.8734 8.16354C30.8743 8.3809 30.9041 8.63182 30.8606 8.84351C30.8395 8.94583 30.8008 9.02974 30.708 9.08491C30.5709 9.16638 30.3812 9.08946 30.2454 9.04108C30.1279 9.26946 29.9535 9.43324 29.7766 9.61422C29.536 9.88071 29.1918 10.3509 28.813 10.381C28.5201 10.4042 28.4331 10.1781 28.2086 10.1389C28.4045 10.3748 28.7515 10.5874 28.7675 10.9238C28.7722 11.023 28.7357 11.1114 28.6639 11.1797C28.3711 11.4581 27.7694 11.4242 27.3999 11.4069C27.3913 11.4152 27.3828 11.4235 27.3741 11.4318C27.1663 11.628 27.0167 11.652 26.7421 11.647C26.7421 13.7897 27.5218 15.9606 27.2441 18.0545C27.1575 18.7073 26.9802 19.271 26.4414 19.6828C26.4947 20.0985 26.5679 20.5132 26.6329 20.9274L26.3614 20.9383C25.8838 18.396 25.9919 15.4803 26.2828 12.9095C26.3436 12.3712 26.3908 11.8159 26.4955 11.2848C26.6529 11.3278 26.8103 11.3605 26.9743 11.3564C27.0508 11.3545 27.1195 11.3478 27.1742 11.2898C27.1762 11.2762 27.1827 11.2626 27.1801 11.2492C27.1741 11.2181 26.7065 10.7391 26.6442 10.6647C26.2605 10.2068 25.9302 9.69138 25.5805 9.20679C25.7608 10.3925 25.9128 11.5593 25.9292 12.7611C25.9467 14.039 25.7913 15.2916 25.6056 16.5531C25.3965 18.0325 25.1127 19.4975 24.7543 20.9481L24.4229 20.9526C24.6486 20.2641 24.7812 19.5546 24.9246 18.8457C25.4479 16.2571 25.8952 12.9969 25.4976 10.3833C25.4823 10.2824 25.4392 9.85263 25.3743 9.805L25.3168 9.82713C25.2339 9.93569 25.2357 10.0872 25.2379 10.2183C25.2466 10.7372 25.3528 11.2633 25.3801 11.7846C25.4261 12.6604 25.396 15.9545 25.1205 16.6601C25.1181 16.6665 25.1153 16.6728 25.1127 16.6791C25.1595 16.2678 25.1309 15.8416 25.1029 15.4294C24.978 13.5939 24.4431 12.3039 23.6754 10.6586C24.2509 10.2579 24.8178 9.87171 25.3565 9.42068C25.2134 8.5189 24.9703 7.23223 24.308 6.57467C24.1946 6.46203 23.9445 6.26623 23.7719 6.28479C23.6676 6.296 23.6234 6.34737 23.5622 6.42467C23.422 6.79104 23.4794 7.26434 23.5131 7.64824C23.38 7.4277 23.3036 7.14162 23.133 6.94995C23.0717 6.92989 23.0216 6.91053 22.9578 6.93903C22.7992 7.00986 22.7257 7.25393 22.6827 7.40881C22.5819 7.77185 22.3278 8.78168 22.3699 9.11355C22.4178 9.1804 22.4597 9.20046 22.5387 9.21246C22.7765 9.24846 23.0378 9.2028 23.2764 9.18358C23.8499 9.13746 24.5823 9.10193 25.1165 9.32515C24.5959 9.80486 23.9061 10.0397 23.439 10.5967C23.6164 11.2081 23.955 11.769 24.1662 12.371C24.2239 12.5329 24.2782 12.696 24.3288 12.8604C24.3795 13.0246 24.4266 13.1899 24.4701 13.3563C24.5136 13.5226 24.5535 13.6899 24.5897 13.8579C24.6259 14.026 24.6585 14.1948 24.6874 14.3643C24.7162 14.5338 24.7414 14.7038 24.7629 14.8744C24.7845 15.045 24.8023 15.216 24.8163 15.3873C24.8304 15.5587 24.8407 15.7303 24.8474 15.9021C24.8539 16.0739 24.8568 16.2458 24.856 16.4177C24.8497 16.8639 24.7803 17.3081 24.7717 17.7525C24.6299 18.8242 24.3996 19.8626 24.1956 20.9218C24.1539 20.9493 24.1738 20.9437 24.1398 20.9485L23.8152 20.9504C23.6411 20.6377 23.4154 20.3464 23.215 20.0497C23.0631 19.8247 22.9278 19.5761 22.7509 19.3702C22.6837 19.3582 22.6299 19.3948 22.5712 19.4234C22.8004 19.9515 23.1053 20.4549 23.3997 20.9489C22.8322 20.9382 22.2648 20.935 21.6973 20.9391C21.3885 20.9409 21.0735 20.9654 20.7658 20.9439C20.6917 20.9406 20.6184 20.9264 20.5453 20.9146C20.3774 20.7417 20.239 20.5354 20.104 20.3362C19.6634 19.6859 18.739 18.3023 18.6014 17.5456C18.506 17.0211 18.7154 16.4032 18.8421 15.8944C19.3066 14.029 19.8872 12.1439 20.8906 10.4883C21.2319 9.92519 21.8697 9.31671 22.0896 8.73087C22.1361 8.60688 22.1566 8.47043 22.1815 8.34068C20.541 10.1185 19.6749 11.8701 18.9643 14.1654C18.7296 14.9236 18.511 15.6911 18.3518 16.469C18.2765 16.8366 18.1971 17.2178 18.261 17.593C18.4061 18.4469 19.6299 20.1602 20.138 20.9294L19.7836 20.9322L18.3093 20.9375C18.4854 20.4368 18.6666 19.9357 18.808 19.4238L18.7337 19.283C18.5136 19.8277 18.349 20.3921 18.1329 20.9366C17.6621 20.9568 17.191 20.9623 16.7198 20.953L16.4466 20.9459C16.6356 20.1566 16.897 19.3687 17.1501 18.598L18.4321 14.8008C18.6059 14.2755 18.8062 13.7512 18.9473 13.2164C18.557 13.9896 18.2328 14.7841 17.9073 15.5858C17.5481 16.4606 17.2148 17.3452 16.9075 18.2396C16.6003 19.134 16.3195 20.0366 16.0652 20.9475L15.7566 20.9468C15.8835 20.1704 16.2065 19.3835 16.4514 18.6359C17.1707 16.4408 18.0245 14.3551 19.1043 12.3114C19.972 10.669 20.9385 9.07685 22.2975 7.78938C22.3564 7.49459 22.3911 7.13979 22.579 6.89454C22.7357 6.69017 22.9616 6.61798 23.206 6.58062C23.2684 6.40381 23.3289 6.20089 23.4899 6.08731C23.6525 5.97261 23.8281 5.9959 24.0112 6.02722C24.1696 5.8265 24.3025 5.58041 24.5106 5.42548C24.6358 5.3323 24.7954 5.27886 24.9516 5.30745C25.3231 5.37547 25.5747 5.77967 25.7713 6.06856ZM26.2259 6.98201C26.5337 7.49867 27.3935 9.33893 27.7948 9.60377C27.625 9.31038 27.4325 9.02027 27.4265 8.66979C27.4158 8.03801 27.915 7.58885 28.3268 7.1825C28.5117 6.99996 28.6907 6.81059 28.8708 6.62332L29.0472 6.44909L28.8618 6.23C28.835 6.02867 28.7975 5.77301 28.6229 5.64134C28.5618 5.59526 28.4915 5.57862 28.4165 5.59222C28.2055 5.63042 27.996 5.8497 27.8848 6.02112C27.7678 6.20178 27.6803 6.45917 27.728 6.67582C27.7432 6.74473 27.779 6.80871 27.8452 6.8405C27.9517 6.89154 28.0287 6.8561 28.1264 6.80984C28.2178 6.76653 28.3046 6.72228 28.4003 6.68867C28.3183 6.83576 28.2336 7.01145 28.0569 7.06029C27.9837 7.08059 27.9067 7.0646 27.844 7.02298C27.7163 6.93828 27.6401 6.76728 27.6165 6.62056C27.5995 6.51457 27.6068 6.40273 27.6104 6.29576C27.1611 6.64386 26.7914 6.86998 26.2259 6.98201ZM20.8955 11.0062C21.1553 10.9333 21.3496 10.3321 22.0099 10.2809C22.1855 10.2673 22.3693 10.3015 22.5242 10.3867C22.7987 10.5374 22.9518 10.8247 23.0277 11.1184C23.3336 12.3021 22.7716 14.3089 22.1485 15.3527C22.0123 15.5809 21.8535 15.7881 21.6562 15.9668C21.8064 16.0661 21.968 16.1508 22.1248 16.2394C22.2566 16.0052 22.3616 15.7565 22.4588 15.5063C23.0051 14.0999 23.78 12.0808 23.1383 10.6196C23.1255 10.5995 23.1124 10.5795 23.0992 10.5596C22.9213 10.2939 22.6707 10.0855 22.3478 10.0278C21.9927 9.96428 21.6619 10.1072 21.3785 10.307C21.1808 10.525 21.0244 10.7413 20.8955 11.0062ZM18.9524 17.1434C19.5924 16.8626 20.3873 16.6633 21.0663 16.9312C21.3271 17.034 21.5329 17.2105 21.6451 17.4707C21.748 17.7093 21.7974 17.987 21.9644 18.1913C22.0377 18.1758 22.1334 18.1688 22.1942 18.1248C22.1872 17.9667 22.1268 17.8013 22.0764 17.6522C21.9016 17.1346 21.8174 16.9447 21.3209 16.6967C20.7365 16.4811 20.1403 16.469 19.567 16.7336C19.4548 16.786 19.3472 16.8465 19.2442 16.9152C19.1411 16.9839 19.0439 17.06 18.9524 17.1434ZM23.6145 20.1144C23.692 20.2239 23.7684 20.3342 23.8506 20.4403C23.9442 20.1253 23.9891 19.7764 24.0533 19.4535C24.229 18.57 24.3803 17.6953 24.4881 16.8008L24.4832 16.6194C24.2207 17.2197 24.0895 18.1898 23.9286 18.8569C23.8351 19.2445 23.6607 19.7278 23.6145 20.1144ZM20.2529 18.5732C20.7432 18.7468 21.2297 18.747 21.7439 18.7548C21.8901 18.7571 22.0875 18.7376 22.2285 18.7764C22.2833 18.7914 22.3189 18.8611 22.3405 18.9093C22.3886 19.0164 22.4126 19.1335 22.4714 19.2358C22.4965 19.2239 22.5144 19.2165 22.538 19.1998C22.6184 19.143 22.658 19.0487 22.6757 18.9547C22.699 18.8313 22.7048 18.5788 22.6117 18.477C22.5644 18.4253 22.5239 18.417 22.4564 18.4155C22.2161 18.4102 21.9486 18.4988 21.7121 18.5422C21.5435 18.5734 21.3736 18.5947 21.2025 18.6059C21.0314 18.6171 20.8602 18.6182 20.6889 18.6093L20.2529 18.5732ZM30.2438 8.03426C30.1641 7.89931 30.0804 7.76609 30.0183 7.6219C30.1432 7.71518 30.2618 7.81709 30.4169 7.85342L30.4369 7.83115C30.3252 7.48409 29.689 6.92248 29.4113 6.65525C28.9552 7.18029 28.7067 7.62837 28.7551 8.33951C28.774 8.61738 28.8406 8.88265 28.9301 9.14552C29.1443 8.99247 29.3513 8.89812 29.6224 8.93983C29.8135 8.96922 29.9726 9.05571 30.1405 9.14501L29.9711 8.8226C29.9575 8.71005 30.0086 8.62727 30.0764 8.5413C30.2216 8.35751 30.421 8.22293 30.5939 8.06712C30.4772 8.05291 30.3616 8.03787 30.2438 8.03426ZM30.6301 8.32165C30.4907 8.41399 30.2372 8.54369 30.197 8.71994C30.1875 8.76129 30.2014 8.78224 30.2141 8.82091L30.3034 8.89952C30.3887 8.92104 30.4861 8.95844 30.5663 8.9036C30.6435 8.85087 30.6912 8.74062 30.6951 8.6493C30.6986 8.56933 30.6802 8.39449 30.6366 8.32793C30.635 8.3254 30.6323 8.32376 30.6301 8.32165ZM31.7188 7.01314C31.2199 6.9237 30.7172 6.8329 30.2449 6.64165C30.0204 6.55072 29.8208 6.39804 29.5865 6.33223C29.6163 6.45912 29.6997 6.53164 29.7906 6.61911C30.148 6.96312 30.5532 7.2777 30.8567 7.67351C30.9706 7.82206 30.8769 7.89635 30.9067 7.93315C31.0499 7.85229 31.1832 7.71823 31.2975 7.59987C31.4597 7.41588 31.6021 7.22937 31.7188 7.01314ZM33.0961 6.33753C33.0999 6.30565 33.1004 6.27809 33.0897 6.2472C32.9918 5.96276 32.6808 5.65508 32.5013 5.41512C31.8795 4.58424 31.3152 3.62306 30.3573 3.1374C29.5887 2.74769 28.825 2.81988 28.0314 3.08162C28.0392 3.08533 28.0466 3.0902 28.0549 3.09275C28.1778 3.13076 28.6504 3.00401 28.8174 2.99337C28.9127 2.98772 29.0081 2.98682 29.1035 2.99068C29.199 2.99453 29.294 3.00311 29.3886 3.01642C29.4832 3.02974 29.5768 3.04771 29.6697 3.07036C29.7624 3.093 29.8539 3.1202 29.944 3.15195C31.2247 3.60762 31.8218 4.81724 32.6013 5.81956C32.731 5.98639 32.9117 6.23262 33.0961 6.33753ZM26.5988 19.1501C27.3192 17.769 26.9796 16.0166 26.755 14.5443C26.6906 14.1216 26.6632 13.6442 26.5469 13.2336C26.5446 13.2255 26.5413 13.2176 26.5385 13.2096C26.4241 13.7976 26.4097 14.4072 26.3817 15.0042C26.3335 16.0303 26.2963 17.0625 26.3311 18.0896C26.3457 18.5212 26.3998 18.9501 26.4197 19.3804C26.4798 19.3045 26.5435 19.2297 26.5988 19.1501ZM26.0746 6.50604C26.4684 6.46601 27.2531 6.21068 27.4976 5.9052C27.5196 5.87773 27.511 5.88383 27.508 5.84056C27.4678 5.80798 27.4376 5.77784 27.3874 5.76223C27.1095 5.93379 26.8362 6.11529 26.5304 6.23408C26.3586 6.30083 26.1364 6.30959 25.9822 6.40043L25.9722 6.44581C26.0069 6.48392 26.0245 6.49409 26.0746 6.50604ZM32.1345 6.293C31.7831 6.05886 31.3739 5.93361 31.0283 5.684C30.6911 5.44044 30.4108 5.13223 30.0987 4.85947C29.546 4.37652 28.8389 4.10201 28.1007 4.13552C27.9117 4.14701 27.738 4.16925 27.5533 4.21151C27.5624 4.21322 27.5715 4.21506 27.5807 4.21663C28.0062 4.28991 28.4268 4.22391 28.8524 4.34678C29.7088 4.59396 30.1889 5.27014 30.888 5.75286C31.1645 5.94383 31.4579 6.07123 31.7754 6.17731L32.1345 6.293ZM24.7404 5.57216C24.5643 5.75 24.4214 5.96375 24.2725 6.16447C24.8772 6.7579 25.1101 7.29556 25.3396 8.09988C25.4086 8.34199 25.4684 8.60927 25.5878 8.83151C25.7691 9.16924 27.0662 10.8693 27.3272 11.0666C27.4228 11.139 27.5698 11.1673 27.6875 11.1641C27.7998 11.161 27.9143 11.145 28.0258 11.1314C28.181 11.1035 28.3443 11.0897 28.4674 10.9828C28.4905 10.9235 28.4992 10.9137 28.4711 10.852C28.3715 10.634 28.069 10.416 27.9068 10.2402C27.7369 10.056 27.5883 9.86477 27.4466 9.65861C26.7974 8.71446 26.2758 7.68738 25.7566 6.66809C25.5876 6.33631 25.3067 5.6862 24.9085 5.5872C24.8525 5.57328 24.7979 5.57 24.7404 5.57216ZM29.2255 9.19469C29.0989 9.26238 28.9952 9.33452 28.8855 9.42752C28.9074 9.49404 28.9294 9.57785 28.9918 9.61793C29.099 9.68693 29.332 9.69086 29.4508 9.65224C29.5359 9.62458 29.5781 9.58966 29.6159 9.50861C29.6466 9.4429 29.6707 9.41224 29.7295 9.36841C29.7354 9.36401 29.7415 9.35979 29.7475 9.35547L29.7765 9.31713C29.6704 9.22197 29.366 9.21101 29.2255 9.19469Z" fill="#F9F9FB"/>
<path d="M28.2415 5.77082C28.3448 5.76243 28.4719 5.7583 28.5605 5.82069C28.6721 5.89926 28.6898 6.05399 28.7163 6.1776C28.5775 6.18168 28.3667 6.16457 28.2477 6.23919C28.1071 6.32741 28.1136 6.57154 28.0922 6.71957L28.0422 6.74896L28.0075 6.73096C27.9542 6.64269 27.9492 6.45093 27.9837 6.35286C28.056 6.14718 28.2285 6.06182 28.4089 5.96577C28.3725 5.8986 28.2739 5.90113 28.2176 5.83705L28.2415 5.77082Z" fill="#F9F9FB"/>
<path d="M20.8955 11.0062C21.1553 10.9333 21.3496 10.3321 22.0099 10.2809C22.1855 10.2673 22.3692 10.3015 22.5242 10.3867C22.7987 10.5374 22.9518 10.8247 23.0277 11.1184C23.3336 12.3021 22.7716 14.3089 22.1485 15.3527C22.0123 15.5809 21.8534 15.7881 21.6562 15.9668C21.3476 15.9368 21.0908 15.8557 20.7742 15.8756C21.2093 16.0699 21.6224 16.2728 22.0376 16.5069L21.8617 16.7098C21.7016 16.6707 21.5377 16.6195 21.3729 16.6556L21.3208 16.6967C20.7365 16.4811 20.1403 16.469 19.567 16.7336C19.4548 16.786 19.3472 16.8465 19.2441 16.9152C19.1411 16.9839 19.0438 17.06 18.9524 17.1434C19.5924 16.8626 20.3872 16.6633 21.0663 16.9312C21.3271 17.034 21.5329 17.2105 21.6451 17.4707C21.748 17.7093 21.7974 17.987 21.9644 18.1913C21.6738 18.2577 20.8707 18.4141 20.6889 18.6093L20.2529 18.5732C20.7432 18.7468 21.2297 18.7469 21.7439 18.7548C21.89 18.7571 22.0875 18.7376 22.2285 18.7764C22.2833 18.7914 22.3189 18.8611 22.3405 18.9093C22.3886 19.0164 22.4126 19.1335 22.4714 19.2358C22.3342 19.2697 22.1219 19.2921 22.0411 19.4196C22.0603 19.4663 22.0452 19.4552 22.088 19.4725C22.2195 19.5255 22.4408 19.4706 22.5712 19.4234C22.8004 19.9515 23.1053 20.4549 23.3997 20.9488C22.8322 20.9382 22.2647 20.935 21.6973 20.9391C21.3885 20.9409 21.0735 20.9654 20.7658 20.9439C20.8078 20.5615 18.8554 18.4004 18.8523 17.3009C18.8509 16.8167 19.0197 16.316 19.1406 15.8505C19.5275 14.3618 19.9686 12.8934 20.6334 11.5019C20.702 11.3583 20.7853 11.1163 20.8955 11.0062Z" fill="white"/>
<path d="M22.1177 16.9334C22.2584 16.5717 22.4407 16.2195 22.5978 15.8639C22.9676 15.0268 23.3075 14.1626 23.5008 13.2656C23.5994 12.8084 23.6148 12.3456 23.6848 11.8848C24.0991 12.8177 24.3548 13.8999 24.4727 14.9113C24.5067 15.2036 24.6275 16.437 24.4832 16.6194C24.2207 17.2197 24.0895 18.1898 23.9285 18.8569C23.8351 19.2445 23.6607 19.7278 23.6145 20.1144C23.3207 19.9165 23.1118 19.4631 22.9398 19.1608C22.9485 19.0418 22.9595 18.9226 22.9657 18.8035C22.98 18.5322 22.8948 18.3657 22.7191 18.1711C22.636 18.1593 22.5531 18.1466 22.4703 18.1329C22.3712 17.7277 22.2537 17.3278 22.1177 16.9334Z" fill="white"/>
<path d="M16.7198 20.953C16.9904 20.1215 17.2342 19.2799 17.4942 18.4449C17.6271 18.0181 17.7459 17.5695 17.9268 17.1602C17.9687 18.0096 18.3108 18.5675 18.7338 19.283C18.5136 19.8278 18.349 20.3921 18.1329 20.9366C17.6621 20.9568 17.191 20.9623 16.7198 20.953Z" fill="white"/>
<path d="M27.7948 9.60377C27.625 9.31038 27.4325 9.02027 27.4265 8.66979C27.4158 8.03801 27.915 7.58885 28.3268 7.18249C28.5117 6.99996 28.6907 6.81059 28.8708 6.62332C28.936 6.64568 29.0426 6.66631 29.0779 6.7249C28.9762 6.90382 28.8329 7.0774 28.7461 7.2619C28.5128 7.75783 28.5907 8.61339 28.7334 9.12255C28.7656 9.23739 28.8009 9.33138 28.8804 9.42171L28.8855 9.42752C28.9074 9.49403 28.9294 9.57785 28.9918 9.61792C29.099 9.68692 29.3319 9.69086 29.4508 9.65224C29.5359 9.62458 29.578 9.58966 29.6159 9.50861C29.6466 9.44289 29.6707 9.41224 29.7294 9.36841C29.7354 9.364 29.7415 9.35978 29.7475 9.35547L29.7766 9.61422C29.536 9.8807 29.1917 10.3509 28.813 10.381C28.5201 10.4042 28.4331 10.1781 28.2085 10.1389L28.1759 10.114C28.185 10.0818 28.1892 10.0834 28.177 10.0478C28.1337 9.92134 27.9102 9.67642 27.7948 9.60377Z" fill="white"/>
<path d="M22.0704 9.26276L22.2151 9.46502C22.9457 9.48677 23.671 9.46277 24.401 9.46999C24.0007 9.7654 23.3341 10.1513 23.1383 10.6196C23.1255 10.5995 23.1124 10.5795 23.0991 10.5596C22.9213 10.2939 22.6707 10.0855 22.3478 10.0278C21.9927 9.96429 21.6619 10.1072 21.3785 10.307C21.5178 9.89383 21.8202 9.60766 22.0704 9.26276Z" fill="white"/>
<path d="M24.4881 16.8008C24.6702 17.0418 24.5183 17.6183 24.7717 17.7525C24.6299 18.8242 24.3996 19.8626 24.1956 20.9218C24.1539 20.9493 24.1738 20.9437 24.1398 20.9485C24.1048 20.7599 23.8955 20.629 23.8506 20.4403C23.9442 20.1253 23.9891 19.7764 24.0533 19.4535C24.229 18.57 24.3803 17.6953 24.4881 16.8008Z" fill="white"/>
<path d="M18.808 19.4238C18.9682 19.6466 19.1128 19.8792 19.2662 20.1066C19.4489 20.3773 19.6463 20.6339 19.7836 20.9322L18.3093 20.9375C18.4853 20.4368 18.6666 19.9357 18.808 19.4238Z" fill="white"/>
<path d="M28.0314 3.08163C28.0392 3.08534 28.0466 3.09021 28.0549 3.09276C28.1777 3.13077 28.6504 3.00402 28.8174 2.99338C28.9127 2.98773 29.0081 2.98683 29.1035 2.99069C29.199 2.99454 29.294 3.00312 29.3886 3.01643C29.4831 3.02975 29.5768 3.04772 29.6696 3.07037C29.7624 3.09301 29.8539 3.12021 29.9439 3.15196C31.2247 3.60763 31.8218 4.81725 32.6013 5.81957C32.731 5.9864 32.9117 6.23263 33.0961 6.33754C32.9626 6.50099 32.8134 6.58724 32.6171 6.65976C31.5669 7.04788 30.5295 6.55466 29.5849 6.11071C29.4435 6.17502 29.3132 6.26118 29.1813 6.34265C29.0249 6.00163 29.0544 5.63395 28.7007 5.41748C28.5327 5.40567 28.3687 5.39442 28.2056 5.44828C27.9463 5.53387 27.8317 5.74387 27.7135 5.9707C27.697 5.83504 27.6946 5.71631 27.6078 5.60484C27.3718 5.46374 26.7449 5.92748 26.5108 6.03885C26.3492 6.11582 26.1907 6.16405 26.0167 6.20526C26.3805 5.47176 26.5928 4.63573 27.0305 3.94412C27.2496 3.59798 27.6137 3.17748 28.0314 3.08163ZM27.5533 4.21152C27.5624 4.21323 27.5715 4.21507 27.5807 4.21664C28.0061 4.28992 28.4267 4.22392 28.8524 4.34679C29.7088 4.59397 30.1889 5.27015 30.888 5.75287C31.1645 5.94384 31.4579 6.07124 31.7754 6.17732L32.1345 6.29301C31.7831 6.05887 31.3739 5.93362 31.0283 5.68401C30.6911 5.44045 30.4108 5.13224 30.0987 4.85948C29.546 4.37653 28.8389 4.10202 28.1006 4.13553C27.9117 4.14702 27.738 4.16926 27.5533 4.21152Z" fill="white"/>
<path d="M34.4062 21.918L34.7284 21.9184C34.7353 23.1802 34.7595 24.4466 34.7263 25.708C34.6201 25.7104 34.5137 25.7205 34.4077 25.7281L34.41 25.2391C34.2188 25.4666 33.984 25.6398 33.6953 25.7205C33.2731 25.8386 32.8906 25.7246 32.5235 25.5131C32.4728 25.4726 32.4221 25.4316 32.3752 25.3865C32.3587 25.3709 32.3425 25.3549 32.3268 25.3385C32.3111 25.3221 32.2958 25.3053 32.2809 25.2881C32.266 25.2709 32.2516 25.2533 32.2376 25.2354C32.2236 25.2175 32.2101 25.1992 32.1971 25.1806C32.184 25.162 32.1714 25.1431 32.1594 25.1238C32.1473 25.1045 32.1357 25.085 32.1246 25.0651C32.1135 25.0453 32.1029 25.0252 32.0928 25.0048C32.0828 24.9844 32.0732 24.9638 32.0642 24.9429C32.0552 24.922 32.0467 24.9009 32.0388 24.8797C32.0309 24.8583 32.0235 24.8368 32.0166 24.8151C32.0098 24.7935 32.0035 24.7716 31.9977 24.7496C31.992 24.7276 31.9869 24.7055 31.9823 24.6832C31.9776 24.661 31.9736 24.6386 31.9701 24.6161C31.9667 24.5937 31.9638 24.5711 31.9615 24.5485C31.9591 24.5259 31.9574 24.5032 31.9563 24.4805C31.9551 24.4578 31.9545 24.4351 31.9545 24.4124C31.9511 24.0326 32.1046 23.6417 32.3778 23.3757C32.6484 23.1124 33.0343 22.97 33.4103 22.979C33.8355 22.9891 34.1283 23.187 34.4117 23.4797C34.4239 22.9608 34.4073 22.4373 34.4062 21.918ZM33.5186 25.4576C33.8274 25.3775 34.0821 25.2507 34.2553 24.9682C34.4222 24.6962 34.4638 24.3566 34.3818 24.0493C34.3774 24.032 34.3725 24.0147 34.3671 23.9977C34.3617 23.9806 34.3559 23.9636 34.3496 23.9468C34.3433 23.93 34.3367 23.9134 34.3295 23.897C34.3224 23.8805 34.3148 23.8643 34.3068 23.8483C34.2989 23.8322 34.2905 23.8164 34.2817 23.8008C34.2729 23.7852 34.2637 23.7698 34.2541 23.7547C34.2445 23.7395 34.2345 23.7247 34.2241 23.7101C34.2137 23.6955 34.2029 23.6812 34.1918 23.6671C34.1807 23.6531 34.1692 23.6393 34.1574 23.6259C34.1455 23.6124 34.1333 23.5993 34.1208 23.5865C34.1083 23.5737 34.0954 23.5612 34.0822 23.5491C34.069 23.5369 34.0555 23.5252 34.0417 23.5137C34.0279 23.5023 34.0139 23.4912 33.9995 23.4805C33.9851 23.4698 33.9705 23.4595 33.9555 23.4496C33.9406 23.4397 33.9255 23.4301 33.91 23.421C33.8946 23.4118 33.879 23.4031 33.8631 23.3948C33.6405 23.2776 33.4276 23.2629 33.1832 23.2757C32.8527 23.3729 32.5845 23.5117 32.4136 23.829C32.4043 23.8464 32.3955 23.864 32.3871 23.8819C32.3787 23.8997 32.3708 23.9178 32.3633 23.9361C32.3558 23.9543 32.3488 23.9727 32.3423 23.9913C32.3357 24.0099 32.3297 24.0287 32.3241 24.0476C32.3185 24.0665 32.3134 24.0856 32.3087 24.1047C32.3041 24.1239 32.2999 24.1432 32.2963 24.1626C32.2926 24.1819 32.2895 24.2014 32.2868 24.2209C32.2841 24.2405 32.2819 24.2601 32.2803 24.2797C32.2786 24.2994 32.2774 24.319 32.2767 24.3388C32.276 24.3585 32.2758 24.3782 32.2761 24.3979C32.2764 24.4176 32.2772 24.4373 32.2785 24.457C32.2798 24.4767 32.2816 24.4963 32.2839 24.5159C32.2862 24.5355 32.289 24.555 32.2923 24.5744C32.2955 24.5939 32.2993 24.6133 32.3036 24.6325C32.3078 24.6518 32.3125 24.6709 32.3178 24.6899C32.323 24.709 32.3287 24.7279 32.3349 24.7466C32.4211 25.0082 32.6016 25.229 32.8491 25.3527C33.0554 25.4558 33.2914 25.4862 33.5186 25.4576Z" fill="white"/>
<path d="M18.7955 22.9551C18.8507 22.9582 18.9064 22.9612 18.9613 22.9685C19.373 23.0238 19.6846 23.2358 19.9339 23.5626L19.9269 23.0197L20.2276 23.016L20.2425 25.7111L19.9363 25.7098L19.932 25.2381C19.8392 25.3475 19.7452 25.443 19.6363 25.5365C19.4459 25.6662 19.2374 25.7622 19.0072 25.7932C18.6499 25.8412 18.281 25.7319 17.9967 25.5134C17.9779 25.499 17.9596 25.4841 17.9416 25.4688C17.9237 25.4534 17.9061 25.4377 17.8889 25.4214C17.8718 25.4052 17.855 25.3885 17.8387 25.3714C17.8224 25.3544 17.8065 25.3369 17.791 25.319C17.7756 25.3011 17.7606 25.2828 17.7461 25.2642C17.7316 25.2456 17.7175 25.2266 17.704 25.2072C17.6904 25.1879 17.6774 25.1682 17.6648 25.1482C17.6522 25.1282 17.6401 25.1079 17.6286 25.0873C17.6171 25.0666 17.6061 25.0457 17.5956 25.0245C17.5851 25.0034 17.5751 24.982 17.5657 24.9603C17.5563 24.9386 17.5474 24.9167 17.5392 24.8946C17.5309 24.8724 17.5231 24.8501 17.516 24.8276C17.5088 24.8051 17.5022 24.7824 17.4961 24.7596C17.4901 24.7367 17.4847 24.7137 17.4798 24.6906C17.4749 24.6675 17.4707 24.6443 17.467 24.6209C17.4633 24.5976 17.4602 24.5742 17.4577 24.5507C17.4128 24.1653 17.5091 23.7489 17.7584 23.4465C18.0263 23.1217 18.3905 22.9927 18.7955 22.9551ZM18.9198 25.496C19.2223 25.464 19.498 25.3634 19.6949 25.1182C19.8943 24.8699 19.9599 24.5208 19.9183 24.2089C19.8782 23.9083 19.7386 23.6384 19.4942 23.4537C19.2967 23.3046 19.0369 23.2286 18.7897 23.2355C18.4722 23.2877 18.2025 23.3792 18.0022 23.6501C17.8106 23.9092 17.7434 24.2455 17.7937 24.5615C17.8403 24.8537 17.9953 25.1318 18.2396 25.3036C18.4386 25.4435 18.6785 25.5027 18.9198 25.496Z" fill="white"/>
<path d="M30.0586 22.9779C30.4071 22.9866 30.7198 23.0713 30.9864 23.3088C31.2617 23.5541 31.4264 23.9208 31.4474 24.2871C31.4488 24.3107 31.4496 24.3343 31.4498 24.358C31.45 24.3817 31.4497 24.4054 31.4487 24.429C31.4477 24.4527 31.4462 24.4763 31.444 24.4999C31.4418 24.5235 31.4391 24.547 31.4357 24.5705C31.4324 24.5939 31.4285 24.6172 31.424 24.6405C31.4194 24.6637 31.4143 24.6869 31.4087 24.7099C31.403 24.7328 31.3967 24.7557 31.3899 24.7784C31.3831 24.801 31.3757 24.8235 31.3677 24.8458C31.3598 24.8681 31.3512 24.8902 31.3422 24.9121C31.3331 24.934 31.3235 24.9556 31.3133 24.977C31.3032 24.9984 31.2925 25.0195 31.2813 25.0404C31.27 25.0612 31.2583 25.0818 31.2461 25.102C31.2338 25.1223 31.2211 25.1423 31.2078 25.1619C31.1945 25.1815 31.1808 25.2008 31.1666 25.2197C31.1523 25.2387 31.1377 25.2572 31.1225 25.2754C31.1073 25.2936 31.0917 25.3114 31.0757 25.3288C30.8082 25.6157 30.4592 25.7452 30.0761 25.7634C29.7428 25.7586 29.4327 25.6594 29.1726 25.4477C28.8827 25.2116 28.7095 24.8693 28.6712 24.4991C28.6335 24.134 28.7272 23.7669 28.9643 23.4819C29.2522 23.1359 29.6254 23.0169 30.0586 22.9779ZM30.2122 25.4525C30.5362 25.3732 30.8082 25.2325 30.9851 24.935C30.9945 24.9189 31.0034 24.9027 31.012 24.8862C31.0205 24.8696 31.0287 24.8529 31.0364 24.836C31.0441 24.8191 31.0514 24.802 31.0583 24.7847C31.0652 24.7674 31.0716 24.75 31.0776 24.7324C31.0836 24.7148 31.0892 24.6971 31.0943 24.6792C31.0995 24.6613 31.1041 24.6434 31.1083 24.6253C31.1126 24.6072 31.1163 24.589 31.1197 24.5707C31.123 24.5524 31.1259 24.534 31.1283 24.5156C31.1307 24.4971 31.1327 24.4787 31.1342 24.4601C31.1357 24.4416 31.1367 24.423 31.1373 24.4044C31.1378 24.3858 31.1379 24.3673 31.1376 24.3487C31.1372 24.3301 31.1365 24.3115 31.1352 24.293C31.1339 24.2744 31.1322 24.2559 31.13 24.2375C31.1278 24.219 31.1252 24.2006 31.122 24.1822C31.1189 24.1639 31.1154 24.1457 31.1113 24.1275C31.1073 24.1094 31.1029 24.0913 31.098 24.0734C31.0254 23.8011 30.8547 23.555 30.6092 23.412C30.407 23.2942 30.1885 23.2638 29.9581 23.2765C29.6256 23.3562 29.3356 23.4782 29.1478 23.7833C28.9944 24.0328 28.951 24.3464 29.0203 24.6299C29.0907 24.918 29.2706 25.1684 29.5305 25.3143C29.7434 25.4339 29.9716 25.4669 30.2122 25.4525Z" fill="white"/>
<path d="M12.2289 44.138C12.2347 44.142 12.2405 44.1459 12.2462 44.15C12.4573 44.3023 12.6128 44.524 12.8201 44.6824C13.4847 45.1905 14.3775 45.485 15.1879 45.6716C14.7986 45.6816 14.4064 45.6563 14.0169 45.6499C13.4709 45.6413 12.9252 45.6498 12.3798 45.6754C10.8824 45.7427 9.39353 45.9238 7.89639 45.9901C9.35551 45.3954 10.8163 44.8416 12.2289 44.138Z" fill="white"/>
<path d="M36.7215 23.0006L36.7468 22.9987C37.1105 22.9747 37.4572 23.077 37.7295 23.3267C38.0577 23.6277 38.1508 24.0145 38.1752 24.4432L35.758 24.4787C35.7757 24.5755 35.7975 24.6683 35.8336 24.7601C35.9459 25.0445 36.1639 25.2747 36.4488 25.3888C36.7776 25.5204 37.0882 25.472 37.405 25.3435C37.5659 25.2576 37.689 25.1339 37.8155 25.0055L38.0136 25.2323C37.77 25.4715 37.5023 25.6667 37.1625 25.7398C37.1402 25.7446 37.1178 25.7489 37.0952 25.7526C37.0726 25.7563 37.05 25.7595 37.0273 25.7621C37.0045 25.7647 36.9818 25.7668 36.959 25.7683C36.9361 25.7697 36.9133 25.7706 36.8904 25.771C36.8676 25.7714 36.8447 25.7711 36.8219 25.7704C36.799 25.7696 36.7762 25.7683 36.7534 25.7664C36.7306 25.7645 36.7079 25.762 36.6852 25.759C36.6625 25.756 36.6399 25.7524 36.6174 25.7482C36.5949 25.7441 36.5726 25.7394 36.5503 25.7342C36.5281 25.729 36.506 25.7232 36.484 25.7168C36.462 25.7105 36.4402 25.7036 36.4186 25.6962C36.3969 25.6888 36.3755 25.6809 36.3542 25.6724C36.333 25.6639 36.312 25.6549 36.2912 25.6454C36.2704 25.6359 36.2498 25.6259 36.2295 25.6154C36.2092 25.6049 36.1892 25.5938 36.1695 25.5823C36.1497 25.5708 36.1302 25.5588 36.111 25.5463C36.0911 25.5336 36.0715 25.5203 36.0522 25.5065C36.0329 25.4927 36.014 25.4785 35.9954 25.4638C35.9768 25.4491 35.9586 25.4339 35.9408 25.4183C35.9229 25.4027 35.9055 25.3866 35.8884 25.3701C35.8714 25.3537 35.8548 25.3368 35.8386 25.3195C35.8224 25.3022 35.8067 25.2845 35.7913 25.2664C35.776 25.2483 35.7611 25.2299 35.7467 25.2111C35.7324 25.1922 35.7184 25.173 35.705 25.1535C35.6915 25.134 35.6786 25.1142 35.6661 25.094C35.6537 25.0738 35.6417 25.0534 35.6303 25.0326C35.6188 25.0119 35.6079 24.9908 35.5975 24.9696C35.5871 24.9482 35.5773 24.9267 35.5679 24.9049C35.5586 24.8831 35.5498 24.8611 35.5416 24.8389C35.5333 24.8167 35.5256 24.7943 35.5185 24.7716C35.5114 24.7491 35.5049 24.7263 35.4989 24.7033C35.4929 24.6804 35.4874 24.6574 35.4826 24.6342C35.4781 24.6117 35.4741 24.5891 35.4707 24.5664C35.4673 24.5437 35.4645 24.5209 35.4623 24.4981C35.46 24.4753 35.4583 24.4524 35.4572 24.4295C35.4561 24.4066 35.4556 24.3837 35.4557 24.3607C35.4557 24.3378 35.4563 24.3149 35.4576 24.292C35.4588 24.2691 35.4605 24.2462 35.4629 24.2234C35.4653 24.2006 35.4682 24.1778 35.4717 24.1551C35.4752 24.1325 35.4792 24.1099 35.4839 24.0875C35.4885 24.065 35.4937 24.0426 35.4994 24.0204C35.5052 23.9982 35.5115 23.9762 35.5183 23.9543C35.5252 23.9324 35.5326 23.9107 35.5405 23.8892C35.5485 23.8677 35.557 23.8464 35.566 23.8253C35.575 23.8042 35.5845 23.7833 35.5946 23.7627C35.6047 23.7421 35.6153 23.7218 35.6264 23.7017C35.6374 23.6816 35.649 23.6618 35.6611 23.6423C35.6732 23.6228 35.6858 23.6036 35.6988 23.5848C35.9469 23.2291 36.309 23.07 36.7215 23.0006ZM35.7668 24.198L36.9413 24.1797C37.2484 24.1732 37.5556 24.1698 37.8627 24.1694C37.7615 23.8478 37.6322 23.5661 37.3126 23.4074C37.1265 23.3151 36.9158 23.2904 36.7105 23.3026C36.4119 23.3517 36.1684 23.4639 35.9917 23.7201C35.891 23.8662 35.827 24.0323 35.7668 24.198Z" fill="white"/>
<path d="M13.1998 21.9734C13.2568 21.9744 13.3165 21.973 13.3731 21.9802C13.3936 21.9828 13.4324 21.9935 13.4495 22.005C13.5428 22.0674 14.7811 23.9628 14.969 24.229C15.4806 23.4908 15.978 22.7432 16.4613 21.9862L16.7441 21.9907C16.7649 22.4233 16.749 22.8627 16.7497 23.2963L16.751 25.7074L16.4287 25.7105L16.4253 23.1692C16.4211 22.9936 16.4149 22.8189 16.4286 22.6436C16.225 22.9686 15.9988 23.2837 15.7842 23.602C15.5168 23.9986 15.2569 24.4033 14.9551 24.7751C14.4384 24.0995 14.0181 23.3469 13.5093 22.6627C13.5477 22.996 13.5218 23.3604 13.5219 23.6964L13.5213 25.7106L13.1956 25.7093C13.2086 24.464 13.21 23.2187 13.1998 21.9734Z" fill="white"/>
<path d="M27.6792 21.971L27.9602 21.9722L27.9589 25.7042L27.6356 25.6992L27.6312 22.5945C27.3939 22.8605 27.2124 23.2056 27.0228 23.5066C26.7557 23.9305 26.4819 24.3411 26.1843 24.7442C25.9466 24.4445 24.9142 22.7571 24.7758 22.6591L24.7715 22.7753L24.7696 25.7103L24.4593 25.7096C24.472 24.4752 24.4589 23.2398 24.4562 22.0053L24.7118 21.9816C25.2255 22.7049 25.6964 23.4733 26.1783 24.218C26.3588 23.9569 27.5492 22.0361 27.6187 21.9916C27.6366 21.9801 27.659 21.9779 27.6792 21.971Z" fill="white"/>
<path d="M23.5622 6.42467C23.5671 6.42893 23.572 6.43329 23.577 6.43746C23.7216 6.55817 23.9084 6.61704 24.0494 6.74135C24.6284 7.25168 24.8322 8.30458 25.031 9.0304C24.2332 8.87482 23.4302 8.91035 22.6226 8.92774C22.7285 8.2976 22.8234 7.51343 23.133 6.94995C23.3036 7.14162 23.38 7.4277 23.5131 7.64824C23.4793 7.26434 23.422 6.79104 23.5622 6.42467Z" fill="white"/>
<path d="M9.81467 22.2518C9.99687 22.4323 10.1649 22.6263 10.3452 22.8086C10.7137 23.1749 11.0845 23.5389 11.4576 23.9006C11.1399 24.2458 10.8296 24.5926 10.5281 24.9524C10.2692 25.2617 10.0381 25.5879 9.81828 25.9258L9.81467 22.2518Z" fill="white"/>
<path d="M22.4332 22.9543C22.7331 22.9706 23.0151 23.0346 23.2376 23.2515C23.6537 23.6572 23.6009 24.3132 23.5959 24.8435L23.589 25.7232L23.2734 25.7297C23.2665 25.1813 23.3693 24.3161 23.2094 23.8168C23.1415 23.6048 23.0118 23.415 22.8057 23.3184C22.5515 23.1991 22.2638 23.2468 22.0078 23.3318C21.8893 23.388 21.7808 23.4516 21.6907 23.5488C21.2877 23.9836 21.4183 25.1401 21.4264 25.7178L21.1114 25.7293L21.1138 23.0296C21.2196 23.0207 21.3269 23.0244 21.433 23.0247C21.4343 23.166 21.4353 23.3051 21.4221 23.4459C21.7275 23.1461 22.0077 23.0141 22.4332 22.9543Z" fill="white"/>
<path d="M21.7039 46.0558C22.6173 45.6594 23.4739 45.1534 24.4065 44.7925L24.4128 44.8201C24.5577 45.4876 24.4189 45.4652 24.9082 46.0504C23.8376 45.9826 22.775 46.0122 21.7039 46.0558Z" fill="white"/>
</svg>
