<?xml version="1.0" encoding="utf-8" ?>
<svg xmlns="http://www.w3.org/2000/svg" xmlns:xlink="http://www.w3.org/1999/xlink" width="291" height="291">
	<path fill="#302F2F" transform="matrix(0.28418 0 0 0.28418 0.000488281 6.10352e-05)" d="M493.041 572.567Q504.466 572.522 515.884 572.916C519.916 595.938 522.772 619.209 527.262 642.134C531.122 661.846 536.855 681.194 539.392 701.15C542.951 729.14 540.885 757.498 541.511 785.623C542.12 812.955 546.566 840.711 552.47 867.355C554.109 874.753 557.014 889.357 562.074 894.665C562.894 888.415 559.252 875.434 558.069 868.415C554.929 849.791 551.452 830.907 549.168 812.167C544.676 775.308 549.339 737.083 545.379 699.777C543.609 683.104 539.035 667.044 535.672 650.67C532.783 636.605 530.522 622.38 528.105 608.227C526.089 596.424 523.836 584.581 522.294 572.707L528.74 572.683Q534.412 611.895 541.976 650.786C544.914 665.573 549.171 680.19 551.138 695.153C552.905 708.594 552.958 722.305 553.013 735.844C553.102 757.858 552.515 780.085 554.203 802.042C555.782 822.569 559.681 844.819 563.411 865.115C565.175 874.707 567.746 884.36 568.705 894.06C571.76 894.025 574.841 893.833 577.756 894.9C582.676 896.7 586.59 900.619 591.287 902.892C602.473 908.304 615.019 911.687 627.107 914.444C642.293 917.908 658.688 906.939 671.265 918.989C673.923 921.535 676.734 925.213 676.619 929.095C676.479 933.794 672.226 937.695 668.927 940.59Q665.718 943.355 662.28 945.83Q658.842 948.304 655.202 950.469Q651.561 952.634 647.745 954.473Q643.929 956.311 639.967 957.81C622.562 964.527 603.544 966.444 585.525 971.025C572.851 974.247 560.298 979.576 547.477 981.876C542.088 982.843 536.812 982.652 531.377 982.412C520.939 969.927 523.9 970.405 520.807 956.165L520.674 955.575C518.676 947.875 514.04 925.451 517.596 918.9C518.829 916.627 521.675 914.819 523.728 913.289C520.614 913.096 517.495 912.839 514.374 912.904Q504.829 876.184 494.235 839.752C488.766 820.634 482.999 801.466 479.267 781.916C475.938 764.478 477.588 747.635 477.623 730.073C477.665 708.862 472.607 685.583 464.126 666.092C458.849 682.629 453.258 699.142 449.233 716.042C447.568 723.032 445.909 730.066 444.569 737.128C443.775 741.317 443.411 745.737 442.321 749.85C441.78 751.893 441.172 754.037 439.263 755.179C431.511 756.508 402.162 745.216 393.642 741.593C388.209 739.283 382.95 736.554 377.699 733.862C372.205 741.733 365.61 749.014 359.539 756.453C349.414 768.86 339.463 781.713 330.831 795.215Q317.331 816.371 305.609 838.562C300.464 848.132 295.867 858.924 289.38 867.603C291.215 869.835 292.22 871.3 292.762 874.175C295.49 888.67 295.373 903.639 302.784 916.963Q304.015 919.134 305.431 921.189Q306.847 923.244 308.437 925.168Q310.027 927.091 311.779 928.869Q313.531 930.646 315.431 932.264C325.207 940.597 341.947 948.19 340.554 963.577C340.278 966.627 339.303 969.892 336.829 971.88C333.431 974.611 328.162 974.567 324.009 974.33C306.72 970.35 287.674 964.067 273.496 953.227C269.074 949.847 265.757 945.117 261.253 941.869C261.132 941.781 261.008 941.698 260.885 941.612Q251.381 933.67 241.103 926.759C230.474 919.762 219.306 913.486 209.706 905.053C205.832 901.65 197.299 893.989 197.594 888.349C197.696 886.399 198.951 884.394 200.069 882.871C203.127 878.701 207.127 875.022 210.449 871.013C215.523 864.892 226.216 849.587 231.564 845.35C233.026 844.191 234.126 844.079 235.906 844.164C238.021 844.264 239.147 844.424 240.988 843.242C241.397 842.607 241.663 842.084 241.711 841.314C241.828 839.413 241.689 837.385 242.182 835.532C243.098 832.084 245.206 828.415 246.672 825.135Q249.902 817.756 252.978 810.311C269.777 770.389 286.289 730.346 314.278 696.726C293.689 681.495 273.767 665.914 259.17 644.558C260.301 639.025 262.155 633.501 263.543 628.006L277.992 572.703L284.96 572.694C279.256 594.739 272.292 616.577 267.547 638.864L270.746 642.122C274.318 635.792 276.447 628.091 278.63 621.173C283.686 605.145 287.699 588.857 292.36 572.717Q309.599 572.923 326.838 572.814C328.354 572.905 329.812 572.868 331.247 573.393C331.11 578.177 329.054 583.367 327.703 587.947C325.538 595.283 315.023 626.704 316.139 632.498C326.159 614.461 331.311 592.624 336.443 572.795L474.759 572.753C476.323 572.726 477.76 572.49 479.07 573.495C479.814 575.094 479.63 576.167 479.048 577.762C465.668 614.395 452.823 651.029 442.223 688.596Q437.684 704.815 433.686 721.176C432.681 725.327 432.185 729.868 430.95 733.907C430.479 735.45 429.944 736.61 428.972 737.893C427.62 738.369 427.354 738.169 425.947 737.783C413.772 733.818 401.777 729.698 389.923 724.842C342.187 702.932 304.356 676.817 265.078 642.045Q266.292 644.287 267.673 646.431C274.09 656.268 283.802 664.555 292.691 672.14C330.324 704.251 386.917 738.509 435.783 748.959C437.355 743.286 438.212 737.239 439.413 731.467Q442.272 717.83 445.901 704.377C453.511 676.239 462.99 648.662 472.196 621.019C477.547 604.949 482.27 588.62 488.183 572.749L493.041 572.567ZM276.068 882.952C281.871 892.358 285.462 904.137 289.915 914.285C292.192 919.473 295.305 924.185 297.474 929.435C298.21 931.216 298.678 932.874 298.683 934.806L298.252 935.455C296.249 935.143 294.21 932.589 293.071 931.029C285.497 920.652 279.493 898.679 274.123 886.216C258.22 883.373 241.939 882.697 231.702 868.141C229.784 865.414 228.443 862.462 227.154 859.401C222.533 865.37 218.069 871.653 213.098 877.325L212.202 878.804C216.393 887.661 231.524 894.904 239.216 900.57C249.009 907.784 257.843 916.231 266.498 924.755C273.136 931.293 279.56 938.014 287.021 943.637C293.336 939.403 299.607 934.974 306.272 931.306C292.801 912.496 291.034 900.075 287.896 877.687C287.56 875.29 287.229 872.04 284.307 871.68C274.61 870.484 266.988 879.896 253.553 875.174C251.004 874.278 248.589 873.016 246.822 870.926C241.619 864.774 242.5 853.808 235.415 849.447C233.837 850.53 232.269 851.749 231.832 853.733C230.975 857.616 234.924 863.79 237.269 866.586C248.293 879.727 262.278 877.001 275.316 882.633L276.068 882.952ZM527.746 963.498C539.471 963.566 549.583 961.287 560.763 958.099Q590.719 950.285 621.173 944.715C621.805 939.111 622.664 933.626 624.234 928.199C615.93 927.168 607.56 924.88 599.379 923.117C591.768 921.476 584.009 920.219 576.454 918.379C565.914 927.824 552.829 941.361 537.509 940.545C532.207 940.262 527.303 938.243 522.887 935.394C524.195 944.826 525.377 954.259 527.746 963.498ZM634.819 921.557C629.973 927.968 627.667 935.631 625.738 943.345L632.127 941.18C640.324 937.925 658.792 930.559 662.624 922.192C663.045 921.273 663.108 920.787 663.03 919.808C662.166 918.746 661.644 918.314 660.24 918.118C658.637 917.894 656.784 917.95 655.19 918.201C648.333 918.857 641.492 919.813 634.819 921.557ZM276.322 867.769L281.275 866.238C273.123 862.995 264.819 859.798 257.424 854.998C253.304 852.324 249.402 848.276 245.075 846.122C243.379 849.584 244.248 852.826 245.419 856.346C247.259 861.878 250.61 867.765 255.998 870.434C261.793 873.305 269.598 870.287 275.219 868.217C275.591 868.079 275.958 867.927 276.322 867.769ZM565.213 912.616C563.436 910.032 561.891 906.904 559.871 904.559C550.111 908.691 539.995 911.803 529.398 912.773C530.273 915.879 530.803 919.424 533.836 921.178C534.554 921.594 535.323 921.929 536.082 922.26C547.376 923.836 556.315 919.026 565.213 912.616ZM368.013 729.034C355.733 745.544 343.344 761.914 331.28 778.598C323.807 788.934 316.143 799.346 309.614 810.309C303.269 820.962 298.037 832.247 292.682 843.418C290.33 848.325 285.278 856.755 284.12 861.493C284.755 862.199 284.431 861.994 284.973 862.264C286.228 861.221 287.316 860.129 288.248 858.781C291.65 853.863 294.189 847.976 297.044 842.706Q305.912 826.141 315.346 809.891C331.973 781.696 352.599 756.723 373.144 731.369C371.499 730.486 369.844 729.446 368.013 729.034ZM523.448 929.489C528.052 932.655 534.897 936.515 540.664 935.421C543.653 934.854 546.655 934.009 549.438 932.771C553.621 930.911 569.689 921.26 571.919 917.643C572.001 917.511 572.056 917.365 572.124 917.225C571.527 916.762 570.943 916.277 570.312 915.861C561.214 922.114 550.13 929.879 538.453 927.967C533.949 927.229 525.005 921.365 521.609 922.365C520.919 923.963 521.403 925.583 522.043 927.184C522.398 928.072 522.832 928.751 523.448 929.489ZM334.451 958.842C333.538 956.688 332.628 954.623 331.201 952.745C327.198 947.478 314.914 937.421 308.683 934.891C302.968 939.206 296.83 942.91 290.682 946.57C299.159 951.091 309.319 954.85 318.743 956.927C323.969 957.932 329.119 958.746 334.451 958.842ZM671.506 929.73C670.699 927.823 670.002 926.018 668.704 924.379C661.225 932.403 653.351 938.461 643.24 942.873C623.597 951.444 601.844 952.821 581.207 957.789C566.706 961.28 552.547 968.18 537.496 968.688Q532.172 968.832 526.855 968.513C528.3 971.102 529.662 973.332 532.012 975.235C535.327 976.707 538.037 977.762 541.756 977.346C555.136 975.85 567.829 970.041 580.804 966.707C600.014 961.771 619.886 959.736 638.498 952.559C650.575 947.901 664.161 940.82 671.506 929.73ZM571.305 899.425C569.643 900.985 568.244 902.312 568.088 904.705C567.958 906.696 568.927 908.405 570.262 909.798C577.149 916.986 589.868 917.123 599.036 918.961C607.587 920.676 617.239 922.815 624.847 927.215C625.873 924.712 626.895 922.304 628.227 919.943C614.784 917.239 601.835 913.459 589.273 907.904C583.181 905.21 577.782 901.183 571.305 899.425ZM207.671 883.046C206.004 884.714 204.235 886.344 202.721 888.15C205.437 893.229 208.851 897.572 213.224 901.339C225.402 911.83 240.224 918.88 253.098 928.467C264.338 936.837 273.652 947.504 285.633 954.927C293.13 959.573 301.851 962.866 310.275 965.387C316.875 967.362 323.448 968.681 330.348 968.81C331.446 967.905 333.283 966.656 333.466 965.177L333.572 965.519L333.615 964.693C329.22 962.697 324.018 963.203 319.335 962.335C310.675 960.73 302.141 957.71 294.189 953.966C274.513 944.7 261.127 924.937 244.573 911.369C232.166 901.2 219.299 894.632 207.671 883.046Z"/>
	<path fill="#4B4949" transform="matrix(0.28418 0 0 0.28418 0.000488281 6.10352e-05)" d="M474.759 572.753C476.323 572.726 477.76 572.49 479.07 573.495C479.814 575.094 479.63 576.167 479.048 577.762C465.668 614.395 452.823 651.029 442.223 688.596Q437.684 704.815 433.686 721.176C432.681 725.327 432.185 729.868 430.95 733.907C430.479 735.45 429.944 736.61 428.972 737.893C427.62 738.369 427.354 738.169 425.947 737.783C413.772 733.818 401.777 729.698 389.923 724.842C389.914 724.112 389.794 723.402 389.699 722.679C385.401 716.101 348.832 698.921 339.534 693.331C328.074 686.442 316.948 678.876 305.755 671.558C307.939 664.197 313.626 636.751 316.139 632.498C326.159 614.461 331.311 592.624 336.443 572.795L474.759 572.753Z"/>
	<path fill="#302F2F" transform="matrix(0.28418 0 0 0.28418 0.000488281 6.10352e-05)" d="M474.759 572.753C476.323 572.726 477.76 572.49 479.07 573.495C479.814 575.094 479.63 576.167 479.048 577.762C465.668 614.395 452.823 651.029 442.223 688.596Q437.684 704.815 433.686 721.176C432.681 725.327 432.185 729.868 430.95 733.907C430.479 735.45 429.944 736.61 428.972 737.893C427.62 738.369 427.354 738.169 425.947 737.783C426.423 718.123 432.94 698.963 438.408 680.211C449.03 643.776 461.358 608.251 474.759 572.753Z"/>
	<path fill="#4B4949" transform="matrix(0.28418 0 0 0.28418 0.000488281 6.10352e-05)" d="M493.041 572.567Q504.466 572.522 515.884 572.916C519.916 595.938 522.772 619.209 527.262 642.134C531.122 661.846 536.855 681.194 539.392 701.15C542.951 729.14 540.885 757.498 541.511 785.623C542.12 812.955 546.566 840.711 552.47 867.355C554.109 874.753 557.014 889.357 562.074 894.665L562.283 895.002C562.195 895.656 562.263 895.928 561.83 896.452C555.605 903.976 528.925 906.875 518.81 907.85C514.688 895.232 512.137 881.895 508.484 869.099C499.176 836.501 488.584 803.815 483.689 770.187C481.784 757.093 483.409 743.763 483.506 730.612C483.698 704.826 476.779 681.292 467.074 657.694C468.758 650.314 471.457 642.952 473.736 635.725L486.209 596.564C488.568 589.253 492.583 580.217 493.041 572.567Z"/>
	<path fill="#4B4949" transform="matrix(0.28418 0 0 0.28418 0.000488281 6.10352e-05)" d="M292.36 572.717Q309.599 572.923 326.838 572.814C320.801 593.764 314.326 614.634 308.897 635.75C306.045 646.843 303.101 658.082 301.795 669.481C292.108 660.771 277.981 652.856 270.746 642.122C274.318 635.792 276.447 628.091 278.63 621.173C283.686 605.145 287.699 588.857 292.36 572.717Z"/>
	<path fill="#4B4949" transform="matrix(0.28418 0 0 0.28418 0.000488281 6.10352e-05)" d="M319.362 699.862Q343.172 715.307 368.013 729.034C355.733 745.544 343.344 761.914 331.28 778.598C323.807 788.934 316.143 799.346 309.614 810.309C303.269 820.962 298.037 832.247 292.682 843.418C290.33 848.325 285.278 856.755 284.12 861.493C284.755 862.199 284.431 861.994 284.973 862.264C284.672 862.438 284.13 862.504 283.786 862.586C270.156 857.121 258.042 849.634 248.331 838.504C252.932 825.391 258.728 812.649 264.117 799.84C279.7 762.806 293.806 731.289 319.362 699.862Z"/>
	<path fill="#302F2F" transform="matrix(0.28418 0 0 0.28418 0.000488281 6.10352e-05)" d="M549.79 129.463C552.584 124.316 555.292 119.172 557.574 113.772C562.434 102.269 566.241 89.7296 573.568 79.4926C582.603 66.8693 597.064 58.9647 612.256 56.5256C629.007 53.8361 644.701 57.7132 658.361 67.705Q663.233 71.3424 667.693 75.4742Q672.153 79.6061 676.152 84.186C683.775 92.8346 689.709 102.545 696.455 111.834C700.86 117.899 706.061 123.524 710.118 129.815C711.054 131.266 712.268 133.298 712.361 135.078C712.447 136.724 711.735 138.086 710.669 139.287C704.643 146.082 689.652 149.209 680.962 149.511C675.157 160.597 669.087 167.264 658.635 174.156C658.654 178.793 659.289 184.146 658.36 188.662C657.911 190.845 657.085 192.635 655.105 193.812C652.181 195.55 648.133 193.909 645.236 192.877C642.73 197.749 639.01 201.243 635.235 205.104C630.103 210.789 622.759 220.82 614.679 221.461C608.431 221.957 606.575 217.133 601.784 216.297C605.963 221.329 613.367 225.866 613.708 233.042C613.809 235.157 613.029 237.044 611.497 238.501C605.251 244.441 592.415 243.717 584.533 243.347C584.35 243.524 584.168 243.703 583.982 243.879C579.548 248.064 576.358 248.576 570.499 248.47C570.5 294.181 587.133 340.493 581.209 385.164C579.362 399.091 575.578 411.115 564.084 419.9C565.222 428.77 566.784 437.616 568.17 446.452L562.378 446.684C552.189 392.449 554.495 330.247 560.7 275.403C561.999 263.92 563.006 252.074 565.238 240.743C568.596 241.661 571.955 242.359 575.453 242.27C577.086 242.229 578.551 242.088 579.718 240.849C579.76 240.56 579.898 240.27 579.843 239.984C579.715 239.32 569.739 229.101 568.41 227.514C560.226 217.745 553.179 206.75 545.719 196.412C549.566 221.708 552.807 246.599 553.158 272.237C553.531 299.5 550.216 326.221 546.255 353.133Q539.562 400.476 528.093 446.893L521.023 446.99C525.837 432.301 528.667 417.166 531.725 402.042C542.889 346.819 552.433 277.267 543.951 221.51C543.624 219.358 542.704 210.19 541.319 209.174L540.093 209.646C538.325 211.962 538.363 215.195 538.41 217.992C538.596 229.061 540.86 240.284 541.444 251.406C542.424 270.089 541.782 340.363 535.906 355.416C535.853 355.553 535.794 355.687 535.738 355.822C536.738 347.047 536.128 337.956 535.53 329.162C532.866 290.005 521.455 262.483 505.077 227.384C517.354 218.836 529.447 210.597 540.94 200.975C537.887 181.737 532.7 154.288 518.572 140.26C516.153 137.857 510.817 133.68 507.136 134.076C504.909 134.315 503.968 135.411 502.662 137.06C499.671 144.876 500.894 154.973 501.614 163.163C498.775 158.458 497.144 152.355 493.506 148.266C492.197 147.838 491.128 147.425 489.768 148.033C486.383 149.544 484.815 154.751 483.898 158.055C481.748 165.8 476.327 187.343 477.225 194.423C478.248 195.849 479.142 196.277 480.827 196.533C485.899 197.301 491.474 196.327 496.565 195.917C508.799 194.933 524.423 194.175 535.819 198.937C524.714 209.171 509.997 214.181 500.033 226.064C503.818 239.107 511.042 251.073 515.546 263.915Q517.395 269.097 519.016 274.355Q520.638 279.612 522.03 284.935Q523.422 290.258 524.581 295.637Q525.74 301.015 526.665 306.439Q527.589 311.863 528.277 317.321Q528.966 322.78 529.416 328.264Q529.866 333.747 530.078 339.245Q530.289 344.743 530.262 350.245C530.129 359.764 528.648 369.24 528.465 378.722C525.44 401.584 520.526 423.737 516.175 446.333C515.285 446.92 515.708 446.8 514.984 446.902L508.058 446.942C504.344 440.272 499.529 434.057 495.254 427.727C492.014 422.929 489.127 417.625 485.354 413.232C483.919 412.976 482.772 413.756 481.52 414.367C486.41 425.633 492.915 436.373 499.194 446.91Q481.036 446.57 462.876 446.703C456.289 446.74 449.569 447.264 443.004 446.804C441.423 446.735 439.861 446.43 438.3 446.179C434.719 442.491 431.767 438.089 428.887 433.84C419.486 419.968 399.766 390.451 396.831 374.308C394.796 363.118 399.262 349.935 401.965 339.081C411.876 299.286 424.262 259.07 445.667 223.751C452.948 211.738 466.554 198.757 471.246 186.259C472.238 183.614 472.675 180.703 473.206 177.935C438.209 215.861 419.732 253.23 404.573 302.196C399.566 318.37 394.903 334.745 391.505 351.339C389.899 359.182 388.206 367.313 389.568 375.319C392.665 393.534 418.773 430.086 429.612 446.496L422.051 446.555L390.6 446.668C394.355 435.986 398.221 425.295 401.239 414.375L399.654 411.372C394.958 422.993 391.447 435.032 386.836 446.648Q371.769 447.296 356.69 446.999L350.861 446.847C354.894 430.009 360.471 413.201 365.869 396.758L393.22 315.752C396.926 304.545 401.199 293.359 404.209 281.95C395.883 298.446 388.967 315.395 382.023 332.498Q370.528 360.492 360.695 389.113Q350.862 417.733 342.724 446.881L336.142 446.867C338.848 430.302 345.739 413.515 350.965 397.567C366.309 350.737 384.523 306.243 407.559 262.643C426.07 227.607 446.688 193.64 475.682 166.174C476.937 159.885 477.677 152.316 481.687 147.084C485.029 142.724 489.848 141.184 495.063 140.387C496.394 136.615 497.684 132.286 501.119 129.863C504.588 127.416 508.333 127.913 512.24 128.581C515.62 124.299 518.455 119.049 522.894 115.744C525.564 113.756 528.969 112.616 532.302 113.226C540.227 114.677 545.594 123.3 549.79 129.463ZM559.488 148.95C566.054 159.972 584.395 199.231 592.957 204.881C589.334 198.622 585.228 192.433 585.101 184.956C584.872 171.478 595.521 161.896 604.306 153.227C608.252 149.333 612.069 145.293 615.912 141.298L619.675 137.581L615.72 132.907C615.149 128.612 614.348 123.158 610.623 120.349C609.319 119.366 607.821 119.011 606.221 119.301C601.719 120.116 597.249 124.794 594.878 128.451C592.381 132.305 590.515 137.796 591.532 142.418C591.856 143.888 592.62 145.253 594.032 145.931C596.305 147.02 597.947 146.264 600.031 145.277C601.982 144.353 603.832 143.409 605.875 142.692C604.125 145.83 602.319 149.578 598.549 150.62C596.986 151.053 595.345 150.712 594.006 149.824C591.282 148.017 589.656 144.369 589.153 141.239C588.79 138.978 588.946 136.592 589.023 134.31C579.438 141.736 571.552 146.56 559.488 148.95ZM445.772 234.8C451.314 233.244 455.459 220.418 469.545 219.327C473.291 219.037 477.212 219.767 480.518 221.583C486.374 224.799 489.639 230.927 491.259 237.193C497.785 262.446 485.796 305.257 472.502 327.526C469.597 332.393 466.208 336.813 462 340.626C465.204 342.744 468.651 344.552 471.996 346.441C474.808 341.445 477.048 336.139 479.122 330.802C490.777 300.799 507.307 257.724 493.619 226.552Q493.208 225.908 492.783 225.273C488.988 219.603 483.642 215.158 476.754 213.927C469.179 212.572 462.122 215.62 456.076 219.883C451.858 224.533 448.522 229.149 445.772 234.8ZM404.318 365.727C417.973 359.737 434.929 355.485 449.415 361.199C454.979 363.393 459.37 367.159 461.763 372.709C463.959 377.8 465.012 383.724 468.575 388.082C470.139 387.751 472.181 387.603 473.477 386.664C473.327 383.291 472.039 379.762 470.965 376.582C467.236 365.539 465.438 361.488 454.846 356.197C442.38 351.598 429.66 351.339 417.43 356.985Q413.84 358.661 410.543 360.859Q407.246 363.057 404.318 365.727ZM503.777 429.108C505.431 431.444 507.06 433.798 508.815 436.06C510.81 429.34 511.769 421.897 513.139 415.01C516.886 396.161 520.114 377.5 522.413 358.418L522.309 354.549C516.709 367.354 513.911 388.049 510.477 402.282C508.483 410.55 504.763 420.861 503.777 429.108ZM432.063 396.229C442.522 399.932 452.901 399.936 463.871 400.104C466.989 400.152 471.201 399.737 474.21 400.564C475.378 400.885 476.138 402.371 476.599 403.399C477.625 405.685 478.137 408.182 479.391 410.364C479.926 410.11 480.309 409.952 480.812 409.596C482.526 408.385 483.371 406.374 483.749 404.369C484.246 401.735 484.37 396.348 482.384 394.177C481.375 393.075 480.512 392.898 479.072 392.866C473.944 392.753 468.238 394.643 463.193 395.567Q457.797 396.568 452.321 396.927Q446.845 397.286 441.365 396.999L432.063 396.229ZM645.203 171.398C643.503 168.519 641.716 165.677 640.392 162.601C643.056 164.591 645.586 166.765 648.896 167.54L649.323 167.065C646.939 159.661 633.366 147.68 627.443 141.979C617.713 153.18 612.411 162.739 613.443 177.91C613.846 183.838 615.268 189.497 617.177 195.105C621.747 191.84 626.162 189.827 631.946 190.717C636.022 191.344 639.417 193.189 642.999 195.094L639.384 188.216C639.095 185.815 640.185 184.049 641.632 182.215C644.728 178.294 648.982 175.423 652.672 172.099C650.181 171.796 647.715 171.475 645.203 171.398ZM653.444 177.529C650.469 179.499 645.061 182.266 644.204 186.026C644.002 186.908 644.299 187.355 644.568 188.18L646.475 189.857C648.294 190.316 650.372 191.114 652.083 189.944C653.729 188.819 654.747 186.467 654.831 184.519C654.904 182.813 654.513 179.083 653.583 177.663C653.548 177.609 653.491 177.574 653.444 177.529ZM676.67 149.614C666.026 147.706 655.302 145.769 645.227 141.689C640.436 139.749 636.178 136.492 631.181 135.088C631.815 137.795 633.595 139.342 635.534 141.208C643.158 148.547 651.804 155.258 658.277 163.702C660.707 166.871 658.709 168.456 659.344 169.241C662.4 167.516 665.244 164.656 667.682 162.131C671.142 158.206 674.18 154.227 676.67 149.614ZM706.052 135.201C706.132 134.521 706.143 133.933 705.916 133.274C703.826 127.206 697.192 120.642 693.362 115.523C680.098 97.7975 668.06 77.2922 647.624 66.9315C631.226 58.6176 614.934 60.1577 598.005 65.7415C598.172 65.8206 598.329 65.9244 598.506 65.9789C601.127 66.7898 611.21 64.0857 614.772 63.8588Q617.823 63.678 620.877 63.8013Q623.931 63.9245 626.958 64.3506Q629.984 64.7766 632.954 65.5012Q635.923 66.2258 638.806 67.2418C666.128 76.9629 678.867 102.768 695.496 124.151C698.264 127.71 702.118 132.963 706.052 135.201ZM567.442 408.537C582.811 379.074 575.565 341.688 570.775 310.279C569.4 301.261 568.816 291.078 566.335 282.317C566.286 282.144 566.216 281.977 566.157 281.806C563.716 294.35 563.409 307.355 562.811 320.091C561.783 341.98 560.99 364 561.731 385.912C562.043 395.12 563.196 404.269 563.621 413.45C564.904 411.83 566.263 410.234 567.442 408.537ZM556.26 138.796C564.66 137.942 581.4 132.495 586.617 125.978C587.087 125.392 586.902 125.522 586.838 124.599C585.981 123.904 585.336 123.261 584.266 122.928C578.337 126.588 572.506 130.46 565.984 132.994C562.318 134.418 557.577 134.605 554.288 136.543L554.075 137.511C554.815 138.324 555.191 138.541 556.26 138.796ZM685.538 134.251C678.041 129.256 669.312 126.584 661.939 121.259C654.745 116.063 648.766 109.488 642.107 103.669C630.317 93.366 615.232 87.5098 599.482 88.2247C595.451 88.4698 591.745 88.9442 587.805 89.8459C587.999 89.8823 588.193 89.9215 588.389 89.9551C597.466 91.5184 606.439 90.1103 615.52 92.7315C633.789 98.0047 644.032 112.43 658.945 122.728C664.844 126.802 671.104 129.52 677.877 131.783L685.538 134.251ZM527.796 118.873C524.04 122.667 520.99 127.227 517.814 131.509C530.714 144.169 535.684 155.639 540.579 172.798C542.052 177.963 543.328 183.665 545.874 188.406C549.743 195.611 577.414 231.878 582.981 236.089C585.021 237.632 588.157 238.236 590.669 238.168C593.064 238.103 595.507 237.761 597.886 237.471C601.195 236.876 604.68 236.58 607.305 234.3C607.799 233.036 607.984 232.826 607.384 231.51C605.261 226.859 598.806 222.209 595.347 218.459C591.721 214.529 588.552 210.449 585.529 206.051C571.679 185.909 560.552 163.998 549.475 142.253C545.869 135.175 539.877 121.306 531.382 119.194C530.188 118.897 529.024 118.827 527.796 118.873ZM623.479 196.154C620.777 197.598 618.566 199.137 616.225 201.121C616.693 202.54 617.163 204.328 618.493 205.183C620.781 206.655 625.75 206.739 628.286 205.915C630.101 205.325 631 204.58 631.807 202.851C632.462 201.449 632.977 200.795 634.23 199.86C634.357 199.766 634.487 199.676 634.615 199.584L635.233 198.766C632.971 196.736 626.476 196.502 623.479 196.154Z"/>
	<path fill="#302F2F" transform="matrix(0.28418 0 0 0.28418 0.000488281 6.10352e-05)" d="M602.486 123.111C604.69 122.932 607.402 122.844 609.293 124.175C611.674 125.851 612.051 129.152 612.616 131.789C609.654 131.876 605.158 131.511 602.62 133.103C599.619 134.985 599.759 140.193 599.303 143.351L598.236 143.978L597.496 143.594C596.359 141.711 596.251 137.62 596.987 135.528C598.53 131.14 602.209 129.319 606.058 127.27C605.281 125.837 603.179 125.891 601.978 124.524L602.486 123.111Z"/>
	<path fill="#4B4949" transform="matrix(0.28418 0 0 0.28418 0.000488281 6.10352e-05)" d="M445.772 234.8C451.314 233.244 455.459 220.418 469.545 219.327C473.291 219.037 477.212 219.767 480.518 221.583C486.374 224.799 489.639 230.927 491.259 237.193C497.785 262.446 485.796 305.257 472.502 327.526C469.597 332.393 466.208 336.813 462 340.626C455.417 339.987 449.938 338.255 443.184 338.68C452.467 342.825 461.28 347.154 470.136 352.148L466.385 356.476C462.969 355.643 459.473 354.55 455.956 355.321L454.846 356.197C442.38 351.598 429.66 351.339 417.43 356.985Q413.84 358.661 410.543 360.859Q407.246 363.057 404.318 365.727C417.973 359.737 434.929 355.485 449.415 361.199C454.979 363.393 459.37 367.159 461.763 372.709C463.959 377.8 465.012 383.724 468.575 388.082C462.375 389.499 445.243 392.835 441.365 396.999L432.063 396.229C442.522 399.932 452.901 399.936 463.871 400.104C466.989 400.152 471.201 399.737 474.21 400.564C475.378 400.885 476.138 402.371 476.599 403.399C477.625 405.685 478.137 408.182 479.391 410.364C476.465 411.088 471.935 411.565 470.211 414.285C470.621 415.282 470.299 415.046 471.211 415.414C474.018 416.546 478.739 415.373 481.52 414.367C486.41 425.633 492.915 436.373 499.194 446.91Q481.036 446.57 462.876 446.703C456.289 446.74 449.569 447.264 443.004 446.804C443.902 438.647 402.249 392.542 402.183 369.086C402.153 358.758 405.754 348.076 408.334 338.146C416.587 306.385 425.999 275.061 440.181 245.374C441.643 242.312 443.421 237.149 445.772 234.8Z"/>
	<path fill="#4B4949" transform="matrix(0.28418 0 0 0.28418 0.000488281 6.10352e-05)" d="M471.845 361.247C474.848 353.531 478.737 346.016 482.088 338.431C489.976 320.572 497.227 302.137 501.352 283.001C503.455 273.246 503.784 263.374 505.276 253.542C514.115 273.444 519.57 296.532 522.085 318.109C522.812 324.345 525.387 350.657 522.309 354.549C516.709 367.354 513.911 388.049 510.477 402.282C508.483 410.55 504.763 420.861 503.777 429.108C497.51 424.887 493.052 415.214 489.383 408.764C489.569 406.227 489.803 403.683 489.936 401.143C490.241 395.354 488.424 391.802 484.675 387.652Q482.017 387.273 479.368 386.837Q476.197 373.868 471.845 361.247Z"/>
	<path fill="#4B4949" transform="matrix(0.28418 0 0 0.28418 0.000488281 6.10352e-05)" d="M356.69 446.999C362.462 429.26 367.663 411.306 373.21 393.492C376.046 384.386 378.579 374.817 382.44 366.086C383.333 384.206 390.63 396.107 399.654 411.372C394.958 422.993 391.447 435.032 386.836 446.648Q371.769 447.296 356.69 446.999Z"/>
	<path fill="#4B4949" transform="matrix(0.28418 0 0 0.28418 0.000488281 6.10352e-05)" d="M592.957 204.881C589.334 198.622 585.228 192.433 585.101 184.956C584.872 171.478 595.521 161.896 604.306 153.227C608.252 149.333 612.069 145.293 615.912 141.298C617.303 141.775 619.577 142.215 620.331 143.465C618.16 147.282 615.103 150.985 613.251 154.921C608.274 165.501 609.937 183.753 612.982 194.615C613.668 197.065 614.422 199.07 616.117 200.997L616.225 201.121C616.693 202.54 617.163 204.328 618.493 205.183C620.781 206.655 625.75 206.739 628.286 205.915C630.101 205.325 631 204.58 631.807 202.851C632.462 201.449 632.977 200.795 634.23 199.86C634.357 199.766 634.487 199.676 634.615 199.584L635.235 205.104C630.103 210.789 622.759 220.82 614.679 221.461C608.431 221.957 606.575 217.133 601.784 216.297L601.088 215.765C601.281 215.08 601.372 215.114 601.111 214.354C600.188 211.656 595.42 206.431 592.957 204.881Z"/>
	<path fill="#4B4949" transform="matrix(0.28418 0 0 0.28418 0.000488281 6.10352e-05)" d="M470.837 197.606L473.923 201.921C489.509 202.385 504.982 201.873 520.555 202.027C512.016 208.329 497.795 216.561 493.619 226.552Q493.208 225.908 492.783 225.273C488.988 219.603 483.642 215.158 476.754 213.927C469.179 212.572 462.122 215.62 456.076 219.883C459.047 211.069 465.498 204.964 470.837 197.606Z"/>
	<path fill="#4B4949" transform="matrix(0.28418 0 0 0.28418 0.000488281 6.10352e-05)" d="M522.413 358.418C526.299 363.559 523.058 375.859 528.465 378.722C525.44 401.584 520.526 423.737 516.175 446.333C515.285 446.92 515.708 446.8 514.984 446.902C514.237 442.879 509.772 440.087 508.815 436.06C510.81 429.34 511.769 421.897 513.139 415.01C516.886 396.161 520.114 377.5 522.413 358.418Z"/>
	<path fill="#4B4949" transform="matrix(0.28418 0 0 0.28418 0.000488281 6.10352e-05)" d="M401.239 414.375C404.655 419.129 407.741 424.091 411.014 428.941C414.912 434.717 419.123 440.19 422.051 446.555L390.6 446.668C394.355 435.986 398.221 425.295 401.239 414.375Z"/>
	<path fill="#4B4949" transform="matrix(0.28418 0 0 0.28418 0.000488281 6.10352e-05)" d="M598.005 65.7415C598.172 65.8206 598.329 65.9244 598.506 65.9789C601.127 66.7898 611.21 64.0857 614.772 63.8588Q617.823 63.678 620.877 63.8013Q623.931 63.9245 626.958 64.3506Q629.984 64.7766 632.954 65.5012Q635.923 66.2258 638.806 67.2418C666.128 76.9629 678.867 102.768 695.496 124.151C698.264 127.71 702.118 132.963 706.052 135.201C703.204 138.688 700.021 140.528 695.834 142.075C673.43 150.355 651.297 139.833 631.146 130.362C628.129 131.734 625.351 133.572 622.537 135.31C619.199 128.035 619.829 120.191 612.284 115.573C608.699 115.321 605.2 115.081 601.721 116.23C596.19 118.056 593.744 122.536 591.223 127.375C590.87 124.481 590.819 121.948 588.968 119.57C583.934 116.56 570.56 126.453 565.566 128.829C562.117 130.471 558.737 131.5 555.025 132.379C562.785 116.731 567.314 98.8956 576.653 84.1413C581.327 76.757 589.094 67.7862 598.005 65.7415ZM587.805 89.8459C587.999 89.8823 588.193 89.9215 588.389 89.9551C597.466 91.5184 606.439 90.1103 615.52 92.7315C633.789 98.0047 644.032 112.43 658.945 122.728C664.844 126.802 671.104 129.52 677.877 131.783L685.538 134.251C678.041 129.256 669.312 126.584 661.939 121.259C654.745 116.063 648.766 109.488 642.107 103.669C630.317 93.366 615.232 87.5098 599.482 88.2247C595.451 88.4698 591.745 88.9442 587.805 89.8459Z"/>
	<path fill="#4B4949" transform="matrix(0.28418 0 0 0.28418 0.000488281 6.10352e-05)" d="M734 467.584L740.874 467.593C741.021 494.512 741.537 521.529 740.829 548.438C738.563 548.489 736.293 548.705 734.032 548.868L734.082 538.435C730.003 543.288 724.993 546.983 718.835 548.705C709.827 551.224 701.667 548.792 693.837 544.281C692.754 543.416 691.673 542.541 690.673 541.58Q690.143 541.081 689.64 540.556Q689.137 540.031 688.66 539.481Q688.184 538.93 687.737 538.357Q687.289 537.783 686.872 537.187Q686.454 536.592 686.068 535.975Q685.681 535.359 685.326 534.724Q684.971 534.089 684.649 533.437Q684.327 532.784 684.038 532.116Q683.75 531.448 683.496 530.767Q683.242 530.085 683.023 529.391Q682.804 528.697 682.62 527.993Q682.437 527.289 682.29 526.577Q682.142 525.864 682.031 525.145Q681.921 524.426 681.846 523.703Q681.772 522.979 681.735 522.252Q681.698 521.526 681.698 520.798C681.626 512.696 684.9 504.357 690.729 498.683C696.5 493.066 704.733 490.027 712.754 490.219C721.825 490.436 728.072 494.658 734.117 500.902C734.378 489.832 734.025 478.664 734 467.584ZM715.066 543.096C721.653 541.388 727.086 538.682 730.781 532.657C734.341 526.853 735.23 519.608 733.481 513.053Q733.338 512.498 733.166 511.951Q732.994 511.404 732.793 510.867Q732.593 510.329 732.365 509.803Q732.137 509.277 731.881 508.764Q731.626 508.25 731.344 507.751Q731.063 507.251 730.755 506.767Q730.448 506.283 730.116 505.816Q729.783 505.349 729.427 504.899Q729.071 504.45 728.692 504.02Q728.313 503.589 727.912 503.18Q727.511 502.77 727.089 502.381Q726.667 501.993 726.225 501.627Q725.784 501.261 725.324 500.919Q724.864 500.577 724.386 500.259Q723.909 499.941 723.416 499.649Q722.923 499.356 722.415 499.09C717.666 496.59 713.124 496.276 707.909 496.549C700.859 498.622 695.138 501.585 691.491 508.353Q691.194 508.91 690.926 509.481Q690.658 510.052 690.419 510.637Q690.179 511.221 689.97 511.816Q689.761 512.411 689.582 513.017Q689.403 513.622 689.254 514.235Q689.106 514.849 688.989 515.469Q688.872 516.089 688.786 516.714Q688.701 517.34 688.647 517.969Q688.593 518.597 688.571 519.228Q688.549 519.859 688.559 520.49Q688.568 521.121 688.61 521.751Q688.651 522.38 688.725 523.007Q688.798 523.634 688.903 524.256Q689.008 524.879 689.144 525.495Q689.28 526.111 689.447 526.72Q689.614 527.329 689.812 527.928C691.652 533.509 695.503 538.219 700.783 540.859C705.184 543.059 710.218 543.706 715.066 543.096Z"/>
	<path fill="#4B4949" transform="matrix(0.28418 0 0 0.28418 0.000488281 6.10352e-05)" d="M400.972 489.71C402.15 489.775 403.338 489.839 404.508 489.996C413.292 491.176 419.94 495.699 425.258 502.669L425.109 491.087L431.524 491.008L431.841 548.505L425.309 548.477L425.218 538.414C423.237 540.747 421.233 542.785 418.909 544.779C414.848 547.546 410.399 549.595 405.489 550.256C397.866 551.281 389.996 548.949 383.93 544.288Q383.331 543.826 382.756 543.335Q382.181 542.844 381.632 542.325Q381.082 541.805 380.56 541.258Q380.038 540.712 379.543 540.14Q379.049 539.567 378.584 538.971Q378.12 538.374 377.686 537.755Q377.252 537.136 376.85 536.496Q376.447 535.855 376.078 535.196Q375.709 534.536 375.373 533.858Q375.037 533.181 374.736 532.487Q374.435 531.793 374.17 531.085Q373.904 530.377 373.675 529.657Q373.445 528.937 373.252 528.205Q373.059 527.474 372.904 526.734Q372.748 525.995 372.63 525.248Q372.511 524.501 372.431 523.749C371.475 515.528 373.528 506.645 378.847 500.194C384.562 493.264 392.332 490.513 400.972 489.71ZM403.624 543.916C410.076 543.233 415.959 541.088 420.159 535.856C424.412 530.558 425.813 523.112 424.925 516.458C424.07 510.044 421.092 504.286 415.877 500.346C411.664 497.165 406.121 495.544 400.849 495.692C394.074 496.806 388.322 498.758 384.047 504.537C379.961 510.063 378.527 517.238 379.601 523.979C380.594 530.214 383.901 536.147 389.112 539.811C393.358 542.795 398.476 544.059 403.624 543.916Z"/>
	<path fill="#4B4949" transform="matrix(0.28418 0 0 0.28418 0.000488281 6.10352e-05)" d="M641.252 490.197C648.687 490.382 655.357 492.188 661.045 497.256C666.918 502.489 670.431 510.311 670.879 518.125Q670.924 518.881 670.931 519.639Q670.938 520.397 670.907 521.154Q670.876 521.911 670.807 522.666Q670.737 523.421 670.63 524.171Q670.523 524.921 670.379 525.665Q670.234 526.409 670.053 527.145Q669.871 527.88 669.652 528.606Q669.434 529.332 669.179 530.045Q668.925 530.759 668.634 531.459Q668.344 532.159 668.019 532.844Q667.694 533.528 667.335 534.196Q666.976 534.863 666.584 535.511Q666.192 536.16 665.768 536.788Q665.343 537.416 664.888 538.022Q664.433 538.628 663.948 539.21Q663.463 539.792 662.949 540.349C657.243 546.47 649.798 549.233 641.625 549.62C634.514 549.519 627.899 547.402 622.351 542.886C616.165 537.849 612.47 530.547 611.654 522.649C610.85 514.86 612.848 507.028 617.907 500.948C624.049 493.566 632.01 491.029 641.252 490.197ZM644.528 542.988C651.441 541.296 657.242 538.295 661.017 531.948Q661.317 531.434 661.59 530.906Q661.864 530.377 662.111 529.836Q662.358 529.295 662.578 528.742Q662.798 528.189 662.99 527.626Q663.182 527.063 663.347 526.491Q663.511 525.919 663.646 525.34Q663.781 524.761 663.888 524.175Q663.995 523.59 664.072 523Q664.149 522.41 664.197 521.817Q664.245 521.224 664.263 520.629Q664.281 520.034 664.27 519.44Q664.259 518.845 664.219 518.251Q664.178 517.658 664.108 517.067Q664.038 516.476 663.938 515.889Q663.839 515.303 663.71 514.722Q663.582 514.141 663.425 513.567C661.876 507.758 658.234 502.507 652.998 499.457C648.683 496.944 644.023 496.295 639.107 496.566C632.015 498.266 625.827 500.869 621.822 507.378C618.548 512.7 617.622 519.39 619.1 525.439C620.603 531.586 624.441 536.926 629.985 540.039C634.528 542.59 639.396 543.295 644.528 542.988Z"/>
	<path fill="#4B4949" transform="matrix(0.28418 0 0 0.28418 0.000488281 6.10352e-05)" d="M260.885 941.612C261.008 941.698 261.132 941.781 261.253 941.869C265.757 945.117 269.074 949.847 273.496 953.227C287.674 964.067 306.72 970.35 324.009 974.33C315.705 974.543 307.337 974.003 299.028 973.866Q281.557 973.592 264.103 974.41C232.159 975.847 200.396 979.71 168.457 981.125C199.585 968.438 230.749 956.624 260.885 941.612Z"/>
	<path fill="#4B4949" transform="matrix(0.28418 0 0 0.28418 0.000488281 6.10352e-05)" d="M783.394 490.68L783.934 490.64C791.693 490.127 799.09 492.311 804.897 497.637C811.899 504.058 813.886 512.31 814.407 521.457L762.84 522.214C763.216 524.278 763.681 526.259 764.453 528.216C766.847 534.283 771.498 539.194 777.577 541.628C784.59 544.437 791.217 543.405 797.976 540.662C801.408 538.831 804.033 536.192 806.732 533.452L810.958 538.291C805.762 543.394 800.052 547.558 792.803 549.116Q792.088 549.271 791.366 549.39Q790.644 549.509 789.917 549.593Q789.19 549.676 788.46 549.724Q787.729 549.771 786.998 549.783Q786.266 549.794 785.535 549.769Q784.803 549.745 784.074 549.684Q783.345 549.623 782.619 549.526Q781.894 549.43 781.174 549.297Q780.454 549.165 779.742 548.997Q779.03 548.83 778.327 548.627Q777.624 548.424 776.931 548.187Q776.239 547.95 775.559 547.679Q774.88 547.408 774.214 547.104Q773.548 546.799 772.899 546.463Q772.249 546.126 771.617 545.758Q770.984 545.389 770.371 544.99Q769.732 544.581 769.115 544.14Q768.498 543.699 767.903 543.229Q767.308 542.758 766.738 542.258Q766.167 541.759 765.622 541.231Q765.077 540.704 764.559 540.15Q764.041 539.597 763.55 539.018Q763.06 538.439 762.599 537.837Q762.139 537.234 761.708 536.61Q761.278 535.985 760.879 535.34Q760.481 534.695 760.114 534.031Q759.748 533.366 759.415 532.685Q759.083 532.003 758.784 531.306Q758.485 530.609 758.222 529.898Q757.958 529.187 757.73 528.463Q757.503 527.74 757.311 527.006Q757.119 526.272 756.964 525.53Q756.819 524.81 756.711 524.084Q756.602 523.358 756.53 522.628Q756.458 521.897 756.423 521.164Q756.388 520.431 756.39 519.697Q756.391 518.963 756.43 518.23Q756.468 517.497 756.544 516.767Q756.619 516.037 756.731 515.311Q756.843 514.586 756.991 513.867Q757.139 513.148 757.323 512.437Q757.507 511.727 757.726 511.026Q757.946 510.326 758.2 509.637Q758.454 508.949 758.743 508.274Q759.031 507.599 759.354 506.939Q759.676 506.28 760.031 505.637Q760.385 504.995 760.772 504.371Q761.159 503.747 761.576 503.143C766.87 495.556 774.593 492.161 783.394 490.68ZM763.026 516.226L788.084 515.835Q797.911 515.627 807.74 515.616C805.58 508.754 802.823 502.744 796.005 499.36C792.034 497.389 787.539 496.862 783.159 497.123C776.789 498.171 771.595 500.565 767.824 506.031C765.676 509.146 764.311 512.69 763.026 516.226Z"/>
	<path fill="#4B4949" transform="matrix(0.28418 0 0 0.28418 0.000488281 6.10352e-05)" d="M281.596 468.768C282.813 468.789 284.086 468.758 285.294 468.911C285.73 468.967 286.559 469.196 286.924 469.441C288.914 470.773 315.331 511.208 319.339 516.886Q335.711 493.264 351.176 469.039L357.208 469.137C357.652 478.364 357.313 487.738 357.329 496.988L357.356 548.425L350.48 548.492L350.408 494.278C350.317 490.531 350.186 486.805 350.477 483.064C346.134 489.999 341.308 496.721 336.731 503.51C331.026 511.972 325.482 520.605 319.044 528.536C308.021 514.124 299.053 498.068 288.199 483.471C289.018 490.582 288.466 498.357 288.467 505.525L288.455 548.494L281.508 548.466Q281.922 508.617 281.596 468.768Z"/>
	<path fill="#4B4949" transform="matrix(0.28418 0 0 0.28418 0.000488281 6.10352e-05)" d="M590.49 468.716L596.486 468.742L596.457 548.358L589.56 548.252L589.468 482.017C584.405 487.692 580.533 495.053 576.487 501.475C570.79 510.519 564.948 519.278 558.6 527.878C553.528 521.483 531.504 485.486 528.552 483.396L528.46 485.875L528.42 548.488L521.799 548.472C522.07 522.139 521.791 495.783 521.733 469.448L527.187 468.943C538.145 484.372 548.191 500.764 558.472 516.652C562.323 511.081 587.718 470.105 589.201 469.155C589.583 468.91 590.061 468.862 590.49 468.716Z"/>
	<path fill="#4B4949" transform="matrix(0.28418 0 0 0.28418 0.000488281 6.10352e-05)" d="M502.662 137.06C502.767 137.151 502.871 137.244 502.977 137.333C506.062 139.908 510.047 141.164 513.056 143.816C525.407 154.703 529.755 177.165 533.997 192.649C516.977 189.33 499.845 190.088 482.616 190.459C484.877 177.016 486.9 160.287 493.506 148.266C497.144 152.355 498.775 158.458 501.614 163.163C500.894 154.973 499.671 144.876 502.662 137.06Z"/>
	<path fill="#4B4949" transform="matrix(0.28418 0 0 0.28418 0.000488281 6.10352e-05)" d="M209.38 474.707C213.267 478.557 216.851 482.695 220.698 486.585Q232.49 498.307 244.429 509.88C237.652 517.246 231.031 524.643 224.601 532.319C219.076 538.918 214.146 545.876 209.457 553.085L209.38 474.707Z"/>
	<path fill="#4B4949" transform="matrix(0.28418 0 0 0.28418 0.000488281 6.10352e-05)" d="M478.577 489.692C484.973 490.04 490.99 491.406 495.737 496.033C504.613 504.688 503.487 518.683 503.38 529.996L503.234 548.762L496.501 548.902C496.354 537.202 498.547 518.744 495.135 508.093C493.687 503.57 490.919 499.521 486.523 497.46C481.099 494.916 474.962 495.933 469.5 497.747C466.972 498.945 464.658 500.303 462.737 502.375C454.138 511.651 456.925 536.324 457.097 548.647L450.378 548.894L450.429 491.299C452.685 491.109 454.975 491.189 457.238 491.195C457.266 494.209 457.287 497.176 457.005 500.181C463.522 493.784 469.499 490.968 478.577 489.692Z"/>
	<path fill="#4B4949" transform="matrix(0.28418 0 0 0.28418 0.000488281 6.10352e-05)" d="M463.017 982.526C482.504 974.069 500.777 963.276 520.674 955.575L520.807 956.165C523.9 970.405 520.939 969.927 531.377 982.412C508.538 980.965 485.868 981.596 463.017 982.526Z"/>
</svg>
